StickSans_Thin#1.ufo
<glyph name="quotedbl" format="2">
  <advance width="294"/>
  <unicode hex="0022"/>
  <outline>
    <contour>
      <point x="196" y="419" type="line"/>
      <point x="214" y="419" type="line"/>
      <point x="214" y="697" type="line"/>
      <point x="196" y="697" type="line"/>
    </contour>
    <contour>
      <point x="80" y="419" type="line"/>
      <point x="99" y="419" type="line"/>
      <point x="99" y="697" type="line"/>
      <point x="80" y="697" type="line"/>
    </contour>
  </outline>
</glyph>
<glyph name="percent" format="2">
  <advance width="735"/>
  <unicode hex="0025"/>
  <outline>
    <contour>
      <point x="127" y="0" type="line"/>
      <point x="146" y="0" type="line"/>
      <point x="607" y="697" type="line"/>
      <point x="588" y="697" type="line"/>
    </contour>
    <contour>
      <point x="527" y="-5" type="curve" smooth="yes"/>
      <point x="613" y="-5"/>
      <point x="684" y="66"/>
      <point x="684" y="153" type="curve" smooth="yes"/>
      <point x="684" y="239"/>
      <point x="613" y="310"/>
      <point x="526" y="310" type="curve" smooth="yes"/>
      <point x="440" y="310"/>
      <point x="369" y="240"/>
      <point x="369" y="153" type="curve" smooth="yes"/>
      <point x="369" y="65"/>
      <point x="440" y="-5"/>
    </contour>
    <contour>
      <point x="527" y="11" type="curve" smooth="yes"/>
      <point x="449" y="11"/>
      <point x="385" y="74"/>
      <point x="385" y="153" type="curve" smooth="yes"/>
      <point x="385" y="231"/>
      <point x="448" y="294"/>
      <point x="526" y="294" type="curve" smooth="yes"/>
      <point x="604" y="294"/>
      <point x="667" y="231"/>
      <point x="667" y="153" type="curve" smooth="yes"/>
      <point x="667" y="74"/>
      <point x="604" y="11"/>
    </contour>
    <contour>
      <point x="209" y="387" type="curve" smooth="yes"/>
      <point x="295" y="387"/>
      <point x="366" y="458"/>
      <point x="366" y="544" type="curve" smooth="yes"/>
      <point x="366" y="631"/>
      <point x="295" y="702"/>
      <point x="208" y="702" type="curve" smooth="yes"/>
      <point x="122" y="702"/>
      <point x="51" y="632"/>
      <point x="51" y="544" type="curve" smooth="yes"/>
      <point x="51" y="457"/>
      <point x="122" y="387"/>
    </contour>
    <contour>
      <point x="209" y="403" type="curve" smooth="yes"/>
      <point x="130" y="403"/>
      <point x="67" y="466"/>
      <point x="67" y="544" type="curve" smooth="yes"/>
      <point x="67" y="623"/>
      <point x="130" y="686"/>
      <point x="208" y="686" type="curve" smooth="yes"/>
      <point x="286" y="686"/>
      <point x="349" y="623"/>
      <point x="349" y="544" type="curve" smooth="yes"/>
      <point x="349" y="466"/>
      <point x="286" y="403"/>
    </contour>
  </outline>
</glyph>
<glyph name="ampersand" format="2">
  <advance width="626"/>
  <unicode hex="0026"/>
  <outline>
    <contour>
      <point x="254" y="-6" type="curve" smooth="yes"/>
      <point x="432" y="-6"/>
      <point x="549" y="118"/>
      <point x="571" y="336" type="curve"/>
      <point x="552" y="337" type="line"/>
      <point x="531" y="129"/>
      <point x="421" y="13"/>
      <point x="254" y="13" type="curve" smooth="yes"/>
      <point x="144" y="13"/>
      <point x="74" y="68"/>
      <point x="74" y="157" type="curve" smooth="yes"/>
      <point x="74" y="267"/>
      <point x="175" y="316"/>
      <point x="266" y="363" type="curve" smooth="yes"/>
      <point x="363" y="413"/>
      <point x="460" y="464"/>
      <point x="460" y="573" type="curve" smooth="yes"/>
      <point x="460" y="645"/>
      <point x="410" y="702"/>
      <point x="312" y="702" type="curve" smooth="yes"/>
      <point x="214" y="702"/>
      <point x="146" y="637"/>
      <point x="146" y="548" type="curve" smooth="yes"/>
      <point x="146" y="482"/>
      <point x="180" y="432"/>
      <point x="235" y="360" type="curve"/>
      <point x="251" y="370" type="line"/>
      <point x="204" y="432"/>
      <point x="166" y="483"/>
      <point x="166" y="548" type="curve" smooth="yes"/>
      <point x="166" y="625"/>
      <point x="223" y="685"/>
      <point x="312" y="685" type="curve" smooth="yes"/>
      <point x="401" y="685"/>
      <point x="441" y="634"/>
      <point x="441" y="572" type="curve" smooth="yes"/>
      <point x="441" y="477"/>
      <point x="355" y="429"/>
      <point x="257" y="379" type="curve" smooth="yes"/>
      <point x="155" y="327"/>
      <point x="54" y="275"/>
      <point x="54" y="157" type="curve" smooth="yes"/>
      <point x="54" y="57"/>
      <point x="132" y="-6"/>
    </contour>
    <contour>
      <point x="559" y="-28" type="line"/>
      <point x="573" y="-16" type="line"/>
      <point x="256" y="366" type="line"/>
      <point x="241" y="355" type="line"/>
    </contour>
  </outline>
</glyph>
<glyph name="comma" format="2">
  <advance width="241"/>
  <unicode hex="002C"/>
  <outline>
    <contour>
      <point x="34" y="-161" type="line"/>
      <point x="51" y="-161" type="line"/>
      <point x="189" y="131" type="line"/>
      <point x="167" y="131" type="line"/>
    </contour>
  </outline>
</glyph>
<glyph name="period" format="2">
  <advance width="239"/>
  <unicode hex="002E"/>
  <outline>
    <contour>
      <point x="125" y="-5" type="curve" smooth="yes"/>
      <point x="138" y="-5"/>
      <point x="149" y="6"/>
      <point x="149" y="19" type="curve" smooth="yes"/>
      <point x="149" y="33"/>
      <point x="138" y="44"/>
      <point x="125" y="44" type="curve" smooth="yes"/>
      <point x="111" y="44"/>
      <point x="100" y="32"/>
      <point x="100" y="19" type="curve" smooth="yes"/>
      <point x="100" y="6"/>
      <point x="111" y="-5"/>
    </contour>
  </outline>
</glyph>
<glyph name="zero" format="2">
  <advance width="560"/>
  <unicode hex="0030"/>
  <outline>
    <contour>
      <point x="284" y="-5" type="curve" smooth="yes"/>
      <point x="419" y="-5"/>
      <point x="482" y="144"/>
      <point x="482" y="347" type="curve" smooth="yes"/>
      <point x="482" y="552"/>
      <point x="418" y="703"/>
      <point x="278" y="703" type="curve" smooth="yes"/>
      <point x="125" y="703"/>
      <point x="79" y="530"/>
      <point x="79" y="348" type="curve" smooth="yes"/>
      <point x="79" y="169"/>
      <point x="126" y="-5"/>
    </contour>
    <contour>
      <point x="284" y="14" type="curve" smooth="yes"/>
      <point x="145" y="14"/>
      <point x="99" y="171"/>
      <point x="99" y="348" type="curve" smooth="yes"/>
      <point x="99" y="528"/>
      <point x="144" y="684"/>
      <point x="278" y="684" type="curve" smooth="yes"/>
      <point x="401" y="684"/>
      <point x="462" y="549"/>
      <point x="462" y="346" type="curve" smooth="yes"/>
      <point x="462" y="147"/>
      <point x="402" y="14"/>
    </contour>
  </outline>
</glyph>
<glyph name="three" format="2">
  <advance width="559"/>
  <unicode hex="0033"/>
  <outline>
    <contour>
      <point x="275" y="-5" type="curve" smooth="yes"/>
      <point x="411" y="-5"/>
      <point x="504" y="74"/>
      <point x="504" y="192" type="curve" smooth="yes"/>
      <point x="504" y="320"/>
      <point x="390" y="364"/>
      <point x="301" y="371" type="curve"/>
      <point x="369" y="379"/>
      <point x="468" y="415"/>
      <point x="468" y="532" type="curve" smooth="yes"/>
      <point x="468" y="631"/>
      <point x="385" y="702"/>
      <point x="273" y="702" type="curve" smooth="yes"/>
      <point x="157" y="702"/>
      <point x="76" y="630"/>
      <point x="76" y="523" type="curve"/>
      <point x="96" y="522" type="line"/>
      <point x="96" y="618"/>
      <point x="167" y="683"/>
      <point x="273" y="683" type="curve" smooth="yes"/>
      <point x="374" y="683"/>
      <point x="448" y="619"/>
      <point x="448" y="531" type="curve" smooth="yes"/>
      <point x="448" y="405"/>
      <point x="322" y="377"/>
      <point x="229" y="378" type="curve"/>
      <point x="229" y="361" type="line"/>
      <point x="349" y="360"/>
      <point x="485" y="328"/>
      <point x="485" y="192" type="curve" smooth="yes"/>
      <point x="485" y="85"/>
      <point x="400" y="14"/>
      <point x="275" y="14" type="curve" smooth="yes"/>
      <point x="145" y="14"/>
      <point x="63" y="85"/>
      <point x="63" y="198" type="curve"/>
      <point x="43" y="197" type="line"/>
      <point x="43" y="74"/>
      <point x="134" y="-5"/>
    </contour>
  </outline>
</glyph>
<glyph name="eight" format="2">
  <advance width="560"/>
  <unicode hex="0038"/>
  <outline>
    <contour>
      <point x="280" y="-5" type="curve" smooth="yes"/>
      <point x="386" y="-5"/>
      <point x="493" y="60"/>
      <point x="493" y="191" type="curve" smooth="yes"/>
      <point x="493" y="286"/>
      <point x="433" y="359"/>
      <point x="338" y="379" type="curve"/>
      <point x="407" y="398"/>
      <point x="453" y="457"/>
      <point x="453" y="533" type="curve" smooth="yes"/>
      <point x="453" y="633"/>
      <point x="381" y="702"/>
      <point x="282" y="702" type="curve" smooth="yes"/>
      <point x="199" y="702"/>
      <point x="110" y="644"/>
      <point x="110" y="540" type="curve" smooth="yes"/>
      <point x="110" y="459"/>
      <point x="155" y="399"/>
      <point x="223" y="379" type="curve"/>
      <point x="128" y="360"/>
      <point x="66" y="288"/>
      <point x="66" y="191" type="curve" smooth="yes"/>
      <point x="66" y="60"/>
      <point x="175" y="-5"/>
    </contour>
    <contour>
      <point x="280" y="14" type="curve" smooth="yes"/>
      <point x="182" y="14"/>
      <point x="86" y="73"/>
      <point x="86" y="193" type="curve" smooth="yes"/>
      <point x="86" y="297"/>
      <point x="166" y="369"/>
      <point x="280" y="369" type="curve" smooth="yes"/>
      <point x="393" y="369"/>
      <point x="473" y="297"/>
      <point x="473" y="193" type="curve" smooth="yes"/>
      <point x="473" y="73"/>
      <point x="380" y="14"/>
    </contour>
    <contour>
      <point x="283" y="386" type="curve" smooth="yes"/>
      <point x="192" y="386"/>
      <point x="130" y="447"/>
      <point x="130" y="539" type="curve" smooth="yes"/>
      <point x="130" y="632"/>
      <point x="206" y="683"/>
      <point x="282" y="683" type="curve" smooth="yes"/>
      <point x="372" y="683"/>
      <point x="433" y="621"/>
      <point x="433" y="532" type="curve" smooth="yes"/>
      <point x="433" y="447"/>
      <point x="370" y="386"/>
    </contour>
  </outline>
</glyph>
<glyph name="colon" format="2">
  <advance width="239"/>
  <unicode hex="003A"/>
  <outline>
    <contour>
      <point x="119" y="400" type="curve" smooth="yes"/>
      <point x="132" y="400"/>
      <point x="143" y="411"/>
      <point x="143" y="424" type="curve" smooth="yes"/>
      <point x="143" y="438"/>
      <point x="132" y="449"/>
      <point x="119" y="449" type="curve" smooth="yes"/>
      <point x="105" y="449"/>
      <point x="94" y="437"/>
      <point x="94" y="424" type="curve" smooth="yes"/>
      <point x="94" y="411"/>
      <point x="105" y="400"/>
    </contour>
    <contour>
      <point x="119" y="-5" type="curve" smooth="yes"/>
      <point x="132" y="-5"/>
      <point x="143" y="6"/>
      <point x="143" y="19" type="curve" smooth="yes"/>
      <point x="143" y="33"/>
      <point x="132" y="44"/>
      <point x="119" y="44" type="curve" smooth="yes"/>
      <point x="105" y="44"/>
      <point x="94" y="33"/>
      <point x="94" y="19" type="curve" smooth="yes"/>
      <point x="94" y="6"/>
      <point x="105" y="-5"/>
    </contour>
  </outline>
</glyph>
<glyph name="less" format="2">
  <advance width="561"/>
  <unicode hex="003C"/>
  <outline>
    <contour>
      <point x="499" y="41" type="line"/>
      <point x="499" y="60" type="line"/>
      <point x="71" y="250" type="line"/>
      <point x="71" y="243" type="line"/>
      <point x="499" y="433" type="line"/>
      <point x="499" y="452" type="line"/>
      <point x="59" y="255" type="line"/>
      <point x="59" y="237" type="line"/>
    </contour>
  </outline>
</glyph>
<glyph name="question" format="2">
  <advance width="481"/>
  <unicode hex="003F"/>
  <outline>
    <contour>
      <point x="227" y="183" type="line"/>
      <point x="246" y="183" type="line"/>
      <point x="246" y="269" type="line" smooth="yes"/>
      <point x="246" y="395"/>
      <point x="431" y="361"/>
      <point x="431" y="531" type="curve" smooth="yes"/>
      <point x="431" y="641"/>
      <point x="356" y="702"/>
      <point x="233" y="702" type="curve" smooth="yes"/>
      <point x="120" y="702"/>
      <point x="42" y="635"/>
      <point x="41" y="528" type="curve"/>
      <point x="60" y="528" type="line"/>
      <point x="61" y="628"/>
      <point x="133" y="684"/>
      <point x="233" y="684" type="curve" smooth="yes"/>
      <point x="347" y="684"/>
      <point x="412" y="629"/>
      <point x="412" y="531" type="curve" smooth="yes"/>
      <point x="412" y="377"/>
      <point x="227" y="409"/>
      <point x="227" y="270" type="curve" smooth="yes"/>
    </contour>
    <contour>
      <point x="223" y="0" type="line"/>
      <point x="250" y="0" type="line"/>
      <point x="250" y="91" type="line"/>
      <point x="223" y="91" type="line"/>
    </contour>
  </outline>
</glyph>
<glyph name="B" format="2">
  <advance width="583"/>
  <unicode hex="0042"/>
  <anchor x="283" y="0" name="bottom"/>
  <anchor x="283" y="697" name="top"/>
  <outline>
    <contour>
      <point x="97" y="0" type="line"/>
      <point x="295" y="0" type="line" smooth="yes"/>
      <point x="438" y="0"/>
      <point x="513" y="63"/>
      <point x="513" y="186" type="curve" smooth="yes"/>
      <point x="513" y="289"/>
      <point x="460" y="353"/>
      <point x="372" y="366" type="curve"/>
      <point x="440" y="389"/>
      <point x="480" y="447"/>
      <point x="480" y="526" type="curve" smooth="yes"/>
      <point x="480" y="633"/>
      <point x="407" y="697"/>
      <point x="284" y="697" type="curve" smooth="yes"/>
      <point x="97" y="697" type="line"/>
    </contour>
    <contour>
      <point x="117" y="19" type="line"/>
      <point x="117" y="352" type="line"/>
      <point x="333" y="352" type="line" smooth="yes"/>
      <point x="434" y="352"/>
      <point x="493" y="291"/>
      <point x="493" y="186" type="curve" smooth="yes"/>
      <point x="493" y="75"/>
      <point x="426" y="19"/>
      <point x="295" y="19" type="curve" smooth="yes"/>
    </contour>
    <contour>
      <point x="117" y="371" type="line"/>
      <point x="117" y="678" type="line"/>
      <point x="284" y="678" type="line" smooth="yes"/>
      <point x="395" y="678"/>
      <point x="460" y="621"/>
      <point x="460" y="524" type="curve" smooth="yes"/>
      <point x="460" y="432"/>
      <point x="401" y="371"/>
      <point x="311" y="371" type="curve" smooth="yes"/>
    </contour>
  </outline>
</glyph>
<glyph name="D" format="2">
  <advance width="692"/>
  <unicode hex="0044"/>
  <anchor x="339" y="0" name="bottom"/>
  <anchor x="137" y="349" name="center"/>
  <anchor x="339" y="697" name="top"/>
  <outline>
    <contour>
      <point x="97" y="0" type="line"/>
      <point x="273" y="0" type="line" smooth="yes"/>
      <point x="499" y="0"/>
      <point x="624" y="122"/>
      <point x="624" y="343" type="curve" smooth="yes"/>
      <point x="624" y="568"/>
      <point x="496" y="697"/>
      <point x="274" y="697" type="curve" smooth="yes"/>
      <point x="97" y="697" type="line"/>
    </contour>
    <contour>
      <point x="117" y="19" type="line"/>
      <point x="117" y="678" type="line"/>
      <point x="273" y="678" type="line" smooth="yes"/>
      <point x="483" y="678"/>
      <point x="602" y="559"/>
      <point x="602" y="343" type="curve" smooth="yes"/>
      <point x="602" y="131"/>
      <point x="486" y="19"/>
      <point x="271" y="19" type="curve" smooth="yes"/>
    </contour>
  </outline>
</glyph>
<glyph name="E" format="2">
  <advance width="590"/>
  <unicode hex="0045"/>
  <anchor x="322" y="0" name="bottom"/>
  <anchor x="546" y="0" name="ogonek"/>
  <anchor x="322" y="697" name="top"/>
  <anchor x="-8" y="697" name="topleft"/>
  <outline>
    <contour>
      <point x="97" y="0" type="line"/>
      <point x="546" y="0" type="line"/>
      <point x="546" y="19" type="line"/>
      <point x="117" y="19" type="line"/>
      <point x="117" y="342" type="line"/>
      <point x="494" y="342" type="line"/>
      <point x="494" y="361" type="line"/>
      <point x="117" y="361" type="line"/>
      <point x="117" y="678" type="line"/>
      <point x="546" y="678" type="line"/>
      <point x="546" y="697" type="line"/>
      <point x="97" y="697" type="line"/>
    </contour>
  </outline>
</glyph>
<glyph name="F" format="2">
  <advance width="573"/>
  <unicode hex="0046"/>
  <anchor x="316" y="0" name="bottom"/>
  <anchor x="316" y="697" name="top"/>
  <outline>
    <contour>
      <point x="97" y="0" type="line"/>
      <point x="117" y="0" type="line"/>
      <point x="117" y="342" type="line"/>
      <point x="483" y="342" type="line"/>
      <point x="483" y="361" type="line"/>
      <point x="117" y="361" type="line"/>
      <point x="117" y="678" type="line"/>
      <point x="538" y="678" type="line"/>
      <point x="538" y="697" type="line"/>
      <point x="97" y="697" type="line"/>
    </contour>
  </outline>
</glyph>
<glyph name="G" format="2">
  <advance width="722"/>
  <unicode hex="0047"/>
  <anchor x="373" y="0" name="bottom"/>
  <anchor x="373" y="697" name="top"/>
  <outline>
    <contour>
      <point x="372" y="-6" type="curve" smooth="yes"/>
      <point x="487" y="-6"/>
      <point x="641" y="51"/>
      <point x="641" y="325" type="curve"/>
      <point x="641" y="344" type="line"/>
      <point x="439" y="344" type="line"/>
      <point x="439" y="325" type="line"/>
      <point x="628" y="325" type="line"/>
      <point x="622" y="337" type="line"/>
      <point x="622" y="292" type="line"/>
      <point x="620" y="108"/>
      <point x="492" y="14"/>
      <point x="373" y="14" type="curve" smooth="yes"/>
      <point x="199" y="14"/>
      <point x="88" y="144"/>
      <point x="88" y="349" type="curve" smooth="yes"/>
      <point x="88" y="552"/>
      <point x="199" y="683"/>
      <point x="373" y="683" type="curve" smooth="yes"/>
      <point x="498" y="683"/>
      <point x="584" y="617"/>
      <point x="623" y="518" type="curve"/>
      <point x="641" y="525" type="line"/>
      <point x="598" y="636"/>
      <point x="501" y="703"/>
      <point x="373" y="703" type="curve" smooth="yes"/>
      <point x="188" y="703"/>
      <point x="68" y="563"/>
      <point x="68" y="349" type="curve" smooth="yes"/>
      <point x="68" y="134"/>
      <point x="188" y="-6"/>
    </contour>
  </outline>
</glyph>
<glyph name="O" format="2">
  <advance width="747"/>
  <unicode hex="004F"/>
  <anchor x="374" y="0" name="bottom"/>
  <anchor x="374" y="349" name="center"/>
  <anchor x="434" y="0" name="ogonek"/>
  <anchor x="374" y="697" name="top"/>
  <anchor x="5" y="697" name="topleft"/>
  <anchor x="697" y="493" name="topright"/>
  <outline>
    <contour>
      <point x="373" y="-6" type="curve" smooth="yes"/>
      <point x="559" y="-6"/>
      <point x="679" y="134"/>
      <point x="679" y="348" type="curve" smooth="yes"/>
      <point x="679" y="562"/>
      <point x="558" y="703"/>
      <point x="373" y="703" type="curve" smooth="yes"/>
      <point x="188" y="703"/>
      <point x="68" y="562"/>
      <point x="68" y="348" type="curve" smooth="yes"/>
      <point x="68" y="134"/>
      <point x="188" y="-6"/>
    </contour>
    <contour>
      <point x="373" y="14" type="curve" smooth="yes"/>
      <point x="199" y="14"/>
      <point x="88" y="143"/>
      <point x="88" y="348" type="curve" smooth="yes"/>
      <point x="88" y="554"/>
      <point x="199" y="683"/>
      <point x="373" y="683" type="curve" smooth="yes"/>
      <point x="548" y="683"/>
      <point x="659" y="553"/>
      <point x="659" y="348" type="curve" smooth="yes"/>
      <point x="659" y="144"/>
      <point x="548" y="14"/>
    </contour>
  </outline>
</glyph>
<glyph name="P" format="2">
  <advance width="542"/>
  <unicode hex="0050"/>
  <anchor x="264" y="0" name="bottom"/>
  <anchor x="264" y="697" name="top"/>
  <outline>
    <contour>
      <point x="97" y="0" type="line"/>
      <point x="117" y="0" type="line"/>
      <point x="117" y="318" type="line"/>
      <point x="268" y="318" type="line" smooth="yes"/>
      <point x="409" y="318"/>
      <point x="491" y="388"/>
      <point x="491" y="507" type="curve" smooth="yes"/>
      <point x="491" y="627"/>
      <point x="408" y="697"/>
      <point x="268" y="697" type="curve" smooth="yes"/>
      <point x="97" y="697" type="line"/>
    </contour>
    <contour>
      <point x="117" y="337" type="line"/>
      <point x="117" y="678" type="line"/>
      <point x="267" y="678" type="line" smooth="yes"/>
      <point x="396" y="678"/>
      <point x="471" y="615"/>
      <point x="471" y="507" type="curve" smooth="yes"/>
      <point x="471" y="399"/>
      <point x="395" y="337"/>
      <point x="267" y="337" type="curve" smooth="yes"/>
    </contour>
  </outline>
</glyph>
<glyph name="Q" format="2">
  <advance width="755"/>
  <unicode hex="0051"/>
  <guideline x="677" y="-136" angle="90" name=""/>
  <anchor x="379" y="0" name="bottom"/>
  <anchor x="379" y="697" name="top"/>
  <outline>
    <contour>
      <point x="373" y="-6" type="curve" smooth="yes"/>
      <point x="559" y="-6"/>
      <point x="679" y="134"/>
      <point x="679" y="348" type="curve" smooth="yes"/>
      <point x="679" y="562"/>
      <point x="558" y="703"/>
      <point x="373" y="703" type="curve" smooth="yes"/>
      <point x="188" y="703"/>
      <point x="68" y="562"/>
      <point x="68" y="348" type="curve" smooth="yes"/>
      <point x="68" y="135"/>
      <point x="188" y="-6"/>
    </contour>
    <contour>
      <point x="674" y="-30" type="line"/>
      <point x="687" y="-17" type="line"/>
      <point x="440" y="229" type="line"/>
      <point x="427" y="215" type="line"/>
    </contour>
    <contour>
      <point x="373" y="14" type="curve" smooth="yes"/>
      <point x="199" y="14"/>
      <point x="88" y="143"/>
      <point x="88" y="348" type="curve" smooth="yes"/>
      <point x="88" y="554"/>
      <point x="199" y="683"/>
      <point x="373" y="683" type="curve" smooth="yes"/>
      <point x="548" y="683"/>
      <point x="659" y="553"/>
      <point x="659" y="348" type="curve" smooth="yes"/>
      <point x="659" y="144"/>
      <point x="548" y="14"/>
    </contour>
  </outline>
</glyph>
<glyph name="S" format="2">
  <advance width="548"/>
  <unicode hex="0053"/>
  <anchor x="274" y="0" name="bottom"/>
  <anchor x="274" y="697" name="top"/>
  <outline>
    <contour>
      <point x="285" y="-6" type="curve" smooth="yes"/>
      <point x="400" y="-6"/>
      <point x="487" y="73"/>
      <point x="487" y="183" type="curve" smooth="yes"/>
      <point x="487" y="295"/>
      <point x="397" y="336"/>
      <point x="290" y="376" type="curve" smooth="yes"/>
      <point x="188" y="414"/>
      <point x="112" y="447"/>
      <point x="112" y="538" type="curve" smooth="yes"/>
      <point x="112" y="621"/>
      <point x="179" y="684"/>
      <point x="279" y="684" type="curve" smooth="yes"/>
      <point x="355" y="684"/>
      <point x="407" y="648"/>
      <point x="442" y="588" type="curve"/>
      <point x="458" y="599" type="line"/>
      <point x="420" y="666"/>
      <point x="359" y="703"/>
      <point x="279" y="703" type="curve" smooth="yes"/>
      <point x="168" y="703"/>
      <point x="92" y="632"/>
      <point x="92" y="537" type="curve" smooth="yes"/>
      <point x="92" y="435"/>
      <point x="179" y="397"/>
      <point x="274" y="361" type="curve" smooth="yes"/>
      <point x="372" y="324"/>
      <point x="467" y="290"/>
      <point x="467" y="181" type="curve" smooth="yes"/>
      <point x="467" y="84"/>
      <point x="389" y="13"/>
      <point x="285" y="13" type="curve" smooth="yes"/>
      <point x="174" y="13"/>
      <point x="94" y="71"/>
      <point x="75" y="180" type="curve"/>
      <point x="55" y="175" type="line"/>
      <point x="74" y="64"/>
      <point x="159" y="-6"/>
    </contour>
  </outline>
</glyph>
<glyph name="T" format="2">
  <advance width="598"/>
  <unicode hex="0054"/>
  <anchor x="299" y="0" name="bottom"/>
  <anchor x="299" y="349" name="center"/>
  <anchor x="299" y="697" name="top"/>
  <outline>
    <contour>
      <point x="288" y="0" type="line"/>
      <point x="309" y="0" type="line"/>
      <point x="309" y="678" type="line"/>
      <point x="572" y="678" type="line"/>
      <point x="572" y="697" type="line"/>
      <point x="25" y="697" type="line"/>
      <point x="25" y="678" type="line"/>
      <point x="288" y="678" type="line"/>
    </contour>
  </outline>
</glyph>
<glyph name="W" format="2">
  <advance width="925"/>
  <unicode hex="0057"/>
  <anchor x="463" y="0" name="bottom"/>
  <anchor x="463" y="697" name="top"/>
  <outline>
    <contour>
      <point x="235" y="0" type="line"/>
      <point x="261" y="0" type="line"/>
      <point x="465" y="638" type="line"/>
      <point x="461" y="638" type="line"/>
      <point x="664" y="0" type="line"/>
      <point x="690" y="0" type="line"/>
      <point x="884" y="697" type="line"/>
      <point x="863" y="697" type="line"/>
      <point x="677" y="26" type="line"/>
      <point x="474" y="662" type="line"/>
      <point x="451" y="662" type="line"/>
      <point x="249" y="26" type="line"/>
      <point x="63" y="697" type="line"/>
      <point x="41" y="697" type="line"/>
    </contour>
  </outline>
</glyph>
<glyph name="Z" format="2">
  <advance width="543"/>
  <unicode hex="005A"/>
  <anchor x="273" y="0" name="bottom"/>
  <anchor x="273" y="349" name="center"/>
  <anchor x="273" y="697" name="top"/>
  <outline>
    <contour>
      <point x="39" y="0" type="line"/>
      <point x="505" y="0" type="line"/>
      <point x="505" y="19" type="line"/>
      <point x="58" y="19" type="line"/>
      <point x="59" y="19" type="line"/>
      <point x="495" y="674" type="line"/>
      <point x="495" y="697" type="line"/>
      <point x="63" y="697" type="line"/>
      <point x="63" y="678" type="line"/>
      <point x="478" y="678" type="line"/>
      <point x="476" y="681" type="line"/>
      <point x="39" y="24" type="line"/>
    </contour>
  </outline>
</glyph>
<glyph name="c" format="2">
  <advance width="512"/>
  <unicode hex="0063"/>
  <anchor x="285" y="0" name="bottom"/>
  <anchor x="274" y="493" name="top"/>
  <outline>
    <contour>
      <point x="274" y="-5" type="curve" smooth="yes"/>
      <point x="360" y="-5"/>
      <point x="425" y="40"/>
      <point x="455" y="121" type="curve"/>
      <point x="435" y="129" type="line"/>
      <point x="409" y="52"/>
      <point x="349" y="13"/>
      <point x="274" y="13" type="curve" smooth="yes"/>
      <point x="148" y="13"/>
      <point x="86" y="122"/>
      <point x="86" y="247" type="curve" smooth="yes"/>
      <point x="86" y="371"/>
      <point x="148" y="480"/>
      <point x="274" y="480" type="curve" smooth="yes"/>
      <point x="349" y="480"/>
      <point x="409" y="441"/>
      <point x="435" y="364" type="curve"/>
      <point x="455" y="372" type="line"/>
      <point x="424" y="456"/>
      <point x="357" y="498"/>
      <point x="274" y="498" type="curve" smooth="yes"/>
      <point x="149" y="498"/>
      <point x="66" y="394"/>
      <point x="66" y="247" type="curve" smooth="yes"/>
      <point x="66" y="99"/>
      <point x="149" y="-5"/>
    </contour>
  </outline>
</glyph>
<glyph name="d" format="2">
  <advance width="607"/>
  <unicode hex="0064"/>
  <anchor x="311" y="0" name="bottom"/>
  <anchor x="471" y="608" name="center"/>
  <anchor x="507" y="697" name="top"/>
  <anchor x="625" y="493" name="topright"/>
  <outline>
    <contour>
      <point x="292" y="-5" type="curve" smooth="yes"/>
      <point x="396" y="-5"/>
      <point x="476" y="65"/>
      <point x="502" y="167" type="curve"/>
      <point x="497" y="170" type="line"/>
      <point x="497" y="0" type="line"/>
      <point x="517" y="0" type="line"/>
      <point x="517" y="697" type="line"/>
      <point x="497" y="697" type="line"/>
      <point x="497" y="324" type="line"/>
      <point x="501" y="327" type="line"/>
      <point x="476" y="428"/>
      <point x="395" y="498"/>
      <point x="292" y="498" type="curve" smooth="yes"/>
      <point x="164" y="498"/>
      <point x="66" y="391"/>
      <point x="66" y="247" type="curve" smooth="yes"/>
      <point x="66" y="104"/>
      <point x="163" y="-5"/>
    </contour>
    <contour>
      <point x="294" y="14" type="curve" smooth="yes"/>
      <point x="175" y="14"/>
      <point x="86" y="115"/>
      <point x="86" y="247" type="curve" smooth="yes"/>
      <point x="86" y="379"/>
      <point x="175" y="479"/>
      <point x="294" y="479" type="curve" smooth="yes"/>
      <point x="411" y="479"/>
      <point x="498" y="380"/>
      <point x="498" y="247" type="curve" smooth="yes"/>
      <point x="498" y="114"/>
      <point x="411" y="14"/>
    </contour>
  </outline>
</glyph>
<glyph name="e" format="2">
  <advance width="537"/>
  <unicode hex="0065"/>
  <anchor x="279" y="0" name="bottom"/>
  <anchor x="333" y="0" name="ogonek"/>
  <anchor x="271" y="493" name="top"/>
  <outline>
    <contour>
      <point x="279" y="-5" type="curve" smooth="yes"/>
      <point x="353" y="-5"/>
      <point x="401" y="13"/>
      <point x="460" y="71" type="curve"/>
      <point x="444" y="85" type="line"/>
      <point x="393" y="32"/>
      <point x="351" y="14"/>
      <point x="279" y="14" type="curve" smooth="yes"/>
      <point x="162" y="14"/>
      <point x="86" y="99"/>
      <point x="86" y="247" type="curve"/>
      <point x="470" y="247" type="line"/>
      <point x="471" y="254"/>
      <point x="472" y="268"/>
      <point x="472" y="288" type="curve" smooth="yes"/>
      <point x="472" y="377"/>
      <point x="420" y="498"/>
      <point x="271" y="498" type="curve" smooth="yes"/>
      <point x="147" y="498"/>
      <point x="66" y="392"/>
      <point x="66" y="243" type="curve" smooth="yes"/>
      <point x="66" y="95"/>
      <point x="148" y="-5"/>
    </contour>
    <contour>
      <point x="452" y="258" type="curve"/>
      <point x="459" y="263" type="line"/>
      <point x="86" y="263" type="line"/>
      <point x="93" y="390"/>
      <point x="165" y="480"/>
      <point x="271" y="480" type="curve" smooth="yes"/>
      <point x="407" y="480"/>
      <point x="453" y="372"/>
      <point x="453" y="292" type="curve" smooth="yes"/>
      <point x="453" y="282"/>
      <point x="453" y="270"/>
    </contour>
  </outline>
</glyph>
<glyph name="h" format="2">
  <advance width="517"/>
  <unicode hex="0068"/>
  <anchor x="261" y="0" name="bottom"/>
  <anchor x="138" y="607" name="center"/>
  <anchor x="98" y="697" name="top"/>
  <outline>
    <contour>
      <point x="88" y="0" type="line"/>
      <point x="108" y="0" type="line"/>
      <point x="108" y="241" type="line" smooth="yes"/>
      <point x="108" y="405"/>
      <point x="175" y="480"/>
      <point x="270" y="480" type="curve" smooth="yes"/>
      <point x="366" y="480"/>
      <point x="414" y="418"/>
      <point x="414" y="292" type="curve" smooth="yes"/>
      <point x="414" y="0" type="line"/>
      <point x="434" y="0" type="line"/>
      <point x="434" y="297" type="line" smooth="yes"/>
      <point x="434" y="430"/>
      <point x="377" y="498"/>
      <point x="270" y="498" type="curve" smooth="yes"/>
      <point x="184" y="498"/>
      <point x="125" y="451"/>
      <point x="104" y="358" type="curve"/>
      <point x="108" y="359" type="line"/>
      <point x="108" y="697" type="line"/>
      <point x="88" y="697" type="line"/>
    </contour>
  </outline>
</glyph>
<glyph name="k" format="2">
  <advance width="491"/>
  <unicode hex="006B"/>
  <anchor x="245" y="0" name="bottom"/>
  <anchor x="98" y="697" name="top"/>
  <outline>
    <contour>
      <point x="428" y="0" type="line"/>
      <point x="452" y="0" type="line"/>
      <point x="243" y="314" type="line"/>
      <point x="417" y="493" type="line"/>
      <point x="390" y="493" type="line"/>
      <point x="100" y="194" type="line"/>
      <point x="100" y="167" type="line"/>
      <point x="229" y="300" type="line"/>
    </contour>
    <contour>
      <point x="88" y="0" type="line"/>
      <point x="108" y="0" type="line"/>
      <point x="108" y="697" type="line"/>
      <point x="88" y="697" type="line"/>
    </contour>
  </outline>
</glyph>
<glyph name="l" format="2">
  <advance width="196"/>
  <unicode hex="006C"/>
  <anchor x="138" y="0" name="bottom"/>
  <anchor x="119" y="412" name="center"/>
  <anchor x="98" y="697" name="top"/>
  <anchor x="223" y="493" name="topright"/>
  <outline>
    <contour>
      <point x="108" y="0" type="line"/>
      <point x="108" y="697" type="line"/>
      <point x="88" y="697" type="line"/>
      <point x="88" y="0" type="line"/>
    </contour>
  </outline>
</glyph>
<glyph name="q" format="2">
  <advance width="607"/>
  <unicode hex="0071"/>
  <guideline x="367" y="-204" angle="0" name=""/>
  <anchor x="507" y="-204" name="bottom"/>
  <anchor x="625" y="0" name="bottomright"/>
  <anchor x="471" y="-115" name="center"/>
  <anchor x="311" y="493" name="top"/>
  <outline>
    <contour>
      <point x="497" y="-204" type="line"/>
      <point x="517" y="-204" type="line"/>
      <point x="517" y="493" type="line"/>
      <point x="497" y="493" type="line"/>
      <point x="497" y="323" type="line"/>
      <point x="502" y="327" type="line"/>
      <point x="476" y="429"/>
      <point x="395" y="498"/>
      <point x="292" y="498" type="curve" smooth="yes"/>
      <point x="163" y="498"/>
      <point x="66" y="389"/>
      <point x="66" y="246" type="curve" smooth="yes"/>
      <point x="66" y="102"/>
      <point x="164" y="-5"/>
      <point x="292" y="-5" type="curve" smooth="yes"/>
      <point x="395" y="-5"/>
      <point x="476" y="64"/>
      <point x="501" y="165" type="curve"/>
      <point x="497" y="169" type="line"/>
    </contour>
    <contour>
      <point x="294" y="14" type="curve" smooth="yes"/>
      <point x="175" y="14"/>
      <point x="86" y="114"/>
      <point x="86" y="246" type="curve" smooth="yes"/>
      <point x="86" y="378"/>
      <point x="175" y="479"/>
      <point x="294" y="479" type="curve" smooth="yes"/>
      <point x="411" y="479"/>
      <point x="498" y="379"/>
      <point x="498" y="246" type="curve" smooth="yes"/>
      <point x="498" y="113"/>
      <point x="411" y="14"/>
    </contour>
  </outline>
</glyph>
<glyph name="v" format="2">
  <advance width="506"/>
  <unicode hex="0076"/>
  <anchor x="253" y="0" name="bottom"/>
  <anchor x="253" y="493" name="top"/>
  <outline>
    <contour>
      <point x="242" y="0" type="line"/>
      <point x="263" y="0" type="line"/>
      <point x="465" y="493" type="line"/>
      <point x="441" y="493" type="line"/>
      <point x="252" y="23" type="line"/>
      <point x="63" y="493" type="line"/>
      <point x="40" y="493" type="line"/>
    </contour>
  </outline>
</glyph>
<glyph name="x" format="2">
  <advance width="494"/>
  <unicode hex="0078"/>
  <anchor x="247" y="0" name="bottom"/>
  <anchor x="247" y="493" name="top"/>
  <outline>
    <contour>
      <point x="43" y="0" type="line"/>
      <point x="69" y="0" type="line"/>
      <point x="247" y="231" type="line"/>
      <point x="426" y="0" type="line"/>
      <point x="451" y="0" type="line"/>
      <point x="259" y="246" type="line"/>
      <point x="450" y="493" type="line"/>
      <point x="425" y="493" type="line"/>
      <point x="247" y="262" type="line"/>
      <point x="68" y="493" type="line"/>
      <point x="43" y="493" type="line"/>
      <point x="234" y="246" type="line"/>
    </contour>
  </outline>
</glyph>
<glyph name="y" format="2">
  <advance width="506"/>
  <unicode hex="0079"/>
  <guideline x="527" y="-204" angle="0" name=""/>
  <anchor x="404" y="-30" name="bottom"/>
  <anchor x="253" y="493" name="top"/>
  <outline>
    <contour>
      <point x="158" y="-203" type="line"/>
      <point x="180" y="-203" type="line"/>
      <point x="465" y="493" type="line"/>
      <point x="441" y="493" type="line"/>
      <point x="252" y="23" type="line"/>
      <point x="63" y="493" type="line"/>
      <point x="40" y="493" type="line"/>
      <point x="242" y="1" type="line"/>
    </contour>
  </outline>
</glyph>
<glyph name="braceleft" format="2">
  <advance width="197"/>
  <unicode hex="007B"/>
  <outline>
    <contour>
      <point x="167" y="-244" type="curve" smooth="yes"/>
      <point x="198" y="-244" type="line"/>
      <point x="198" y="-228" type="line"/>
      <point x="170" y="-228" type="line" smooth="yes"/>
      <point x="108" y="-228"/>
      <point x="80" y="-200"/>
      <point x="80" y="-136" type="curve" smooth="yes"/>
      <point x="80" y="159" type="line" smooth="yes"/>
      <point x="80" y="207"/>
      <point x="63" y="232"/>
      <point x="25" y="243" type="curve"/>
      <point x="25" y="250" type="line"/>
      <point x="63" y="261"/>
      <point x="80" y="286"/>
      <point x="80" y="334" type="curve" smooth="yes"/>
      <point x="80" y="629" type="line" smooth="yes"/>
      <point x="80" y="693"/>
      <point x="108" y="721"/>
      <point x="170" y="721" type="curve" smooth="yes"/>
      <point x="198" y="721" type="line"/>
      <point x="198" y="737" type="line"/>
      <point x="167" y="737" type="line" smooth="yes"/>
      <point x="96" y="737"/>
      <point x="62" y="703"/>
      <point x="62" y="629" type="curve" smooth="yes"/>
      <point x="62" y="334" type="line" smooth="yes"/>
      <point x="62" y="291"/>
      <point x="46" y="268"/>
      <point x="7" y="261" type="curve"/>
      <point x="7" y="232" type="line"/>
      <point x="46" y="225"/>
      <point x="62" y="203"/>
      <point x="62" y="159" type="curve" smooth="yes"/>
      <point x="62" y="-136" type="line" smooth="yes"/>
      <point x="62" y="-210"/>
      <point x="96" y="-244"/>
    </contour>
  </outline>
</glyph>
<glyph name="bar" format="2">
  <advance width="211"/>
  <unicode hex="007C"/>
  <outline>
    <contour>
      <point x="97" y="-254" type="line"/>
      <point x="114" y="-254" type="line"/>
      <point x="114" y="746" type="line"/>
      <point x="97" y="746" type="line"/>
    </contour>
  </outline>
</glyph>
<glyph name="asciitilde" format="2">
  <advance width="560"/>
  <unicode hex="007E"/>
  <outline>
    <contour>
      <point x="368" y="173" type="curve" smooth="yes"/>
      <point x="429" y="173"/>
      <point x="469" y="229"/>
      <point x="469" y="312" type="curve"/>
      <point x="451" y="312" type="line"/>
      <point x="451" y="238"/>
      <point x="418" y="189"/>
      <point x="368" y="189" type="curve" smooth="yes"/>
      <point x="288" y="189"/>
      <point x="289" y="321"/>
      <point x="192" y="321" type="curve" smooth="yes"/>
      <point x="131" y="321"/>
      <point x="93" y="270"/>
      <point x="93" y="192" type="curve"/>
      <point x="111" y="192" type="line"/>
      <point x="111" y="261"/>
      <point x="141" y="304"/>
      <point x="192" y="304" type="curve" smooth="yes"/>
      <point x="276" y="304"/>
      <point x="275" y="173"/>
    </contour>
  </outline>
</glyph>
<glyph name="cent" format="2">
  <advance width="479"/>
  <unicode hex="00A2"/>
  <outline>
    <contour>
      <point x="260" y="-113" type="line"/>
      <point x="270" y="-113" type="line"/>
      <point x="270" y="0" type="line"/>
      <point x="260" y="0" type="line"/>
    </contour>
    <contour>
      <point x="260" y="493" type="line"/>
      <point x="270" y="493" type="line"/>
      <point x="270" y="601" type="line"/>
      <point x="260" y="601" type="line"/>
    </contour>
    <component base="c" xOffset="-9"/>
  </outline>
</glyph>
<glyph name="sterling" format="2">
  <advance width="545"/>
  <unicode hex="00A3"/>
  <guideline x="118" y="494" angle="90"/>
  <guideline x="136" y="494" angle="90"/>
  <guideline x="491" y="18" angle="0"/>
  <outline>
    <contour>
      <point x="50" y="0" type="line"/>
      <point x="491" y="0" type="line"/>
      <point x="491" y="18" type="line"/>
      <point x="136" y="18" type="line"/>
      <point x="136" y="363" type="line"/>
      <point x="381" y="363" type="line"/>
      <point x="381" y="382" type="line"/>
      <point x="136" y="382" type="line"/>
      <point x="136" y="494" type="line"/>
      <point x="136" y="602"/>
      <point x="210" y="680"/>
      <point x="312" y="680" type="curve" smooth="yes"/>
      <point x="390" y="680"/>
      <point x="452" y="633"/>
      <point x="482" y="550" type="curve"/>
      <point x="501" y="557" type="line"/>
      <point x="467" y="647"/>
      <point x="398" y="698"/>
      <point x="311" y="698" type="curve" smooth="yes"/>
      <point x="199" y="698"/>
      <point x="118" y="612"/>
      <point x="118" y="494" type="curve"/>
      <point x="118" y="382" type="line"/>
      <point x="55" y="382" type="line"/>
      <point x="55" y="363" type="line"/>
      <point x="118" y="363" type="line"/>
      <point x="118" y="18" type="line"/>
      <point x="50" y="18" type="line"/>
    </contour>
  </outline>
</glyph>
<glyph name="brokenbar" format="2">
  <advance width="211"/>
  <unicode hex="00A6"/>
  <outline>
    <contour>
      <point x="97" y="330" type="line"/>
      <point x="114" y="330" type="line"/>
      <point x="114" y="746" type="line"/>
      <point x="97" y="746" type="line"/>
    </contour>
    <contour>
      <point x="97" y="-254" type="line"/>
      <point x="114" y="-254" type="line"/>
      <point x="114" y="155" type="line"/>
      <point x="97" y="155" type="line"/>
    </contour>
  </outline>
</glyph>
<glyph name="section" format="2">
  <advance width="528"/>
  <unicode hex="00A7"/>
  <outline>
    <contour>
      <point x="265" y="-173" type="curve" smooth="yes"/>
      <point x="367" y="-173"/>
      <point x="446" y="-103"/>
      <point x="446" y="-7" type="curve" smooth="yes"/>
      <point x="446" y="17"/>
      <point x="441" y="40"/>
      <point x="430" y="58" type="curve"/>
      <point x="459" y="88"/>
      <point x="478" y="131"/>
      <point x="478" y="182" type="curve" smooth="yes"/>
      <point x="478" y="300"/>
      <point x="377" y="340"/>
      <point x="281" y="376" type="curve" smooth="yes"/>
      <point x="190" y="411"/>
      <point x="103" y="442"/>
      <point x="103" y="536" type="curve" smooth="yes"/>
      <point x="103" y="620"/>
      <point x="171" y="683"/>
      <point x="263" y="683" type="curve" smooth="yes"/>
      <point x="342" y="683"/>
      <point x="393" y="654"/>
      <point x="432" y="587" type="curve"/>
      <point x="449" y="599" type="line"/>
      <point x="407" y="671"/>
      <point x="348" y="702"/>
      <point x="263" y="702" type="curve" smooth="yes"/>
      <point x="161" y="702"/>
      <point x="83" y="632"/>
      <point x="83" y="536" type="curve" smooth="yes"/>
      <point x="83" y="511"/>
      <point x="88" y="489"/>
      <point x="98" y="471" type="curve"/>
      <point x="68" y="439"/>
      <point x="50" y="394"/>
      <point x="50" y="347" type="curve" smooth="yes"/>
      <point x="50" y="228"/>
      <point x="152" y="190"/>
      <point x="249" y="153" type="curve" smooth="yes"/>
      <point x="344" y="117"/>
      <point x="425" y="84"/>
      <point x="425" y="-7" type="curve" smooth="yes"/>
      <point x="425" y="-91"/>
      <point x="357" y="-154"/>
      <point x="265" y="-154" type="curve" smooth="yes"/>
      <point x="185" y="-154"/>
      <point x="135" y="-124"/>
      <point x="96" y="-58" type="curve"/>
      <point x="79" y="-69" type="line"/>
      <point x="122" y="-142"/>
      <point x="181" y="-173"/>
    </contour>
    <contour>
      <point x="418" y="75" type="curve"/>
      <point x="385" y="121"/>
      <point x="324" y="144"/>
      <point x="264" y="167" type="curve" smooth="yes"/>
      <point x="169" y="204"/>
      <point x="70" y="238"/>
      <point x="70" y="348" type="curve" smooth="yes"/>
      <point x="70" y="389"/>
      <point x="85" y="427"/>
      <point x="110" y="455" type="curve"/>
      <point x="140" y="412"/>
      <point x="202" y="386"/>
      <point x="265" y="362" type="curve" smooth="yes"/>
      <point x="361" y="326"/>
      <point x="458" y="291"/>
      <point x="458" y="181" type="curve" smooth="yes"/>
      <point x="458" y="140"/>
      <point x="443" y="102"/>
    </contour>
  </outline>
</glyph>
<glyph name="dieresis" format="2">
  <advance width="326"/>
  <unicode hex="00A8"/>
  <outline>
    <contour>
      <point x="237" y="653" type="curve" smooth="yes"/>
      <point x="251" y="653"/>
      <point x="262" y="665"/>
      <point x="262" y="678" type="curve" smooth="yes"/>
      <point x="262" y="691"/>
      <point x="251" y="702"/>
      <point x="237" y="702" type="curve" smooth="yes"/>
      <point x="224" y="702"/>
      <point x="213" y="691"/>
      <point x="213" y="678" type="curve" smooth="yes"/>
      <point x="213" y="665"/>
      <point x="224" y="653"/>
    </contour>
    <contour>
      <point x="91" y="653" type="curve" smooth="yes"/>
      <point x="104" y="653"/>
      <point x="115" y="665"/>
      <point x="115" y="678" type="curve" smooth="yes"/>
      <point x="115" y="691"/>
      <point x="104" y="702"/>
      <point x="91" y="702" type="curve" smooth="yes"/>
      <point x="77" y="702"/>
      <point x="66" y="691"/>
      <point x="66" y="678" type="curve" smooth="yes"/>
      <point x="66" y="665"/>
      <point x="77" y="653"/>
    </contour>
  </outline>
</glyph>
<glyph name="copyright" format="2">
  <advance width="827"/>
  <unicode hex="00A9"/>
  <outline>
    <contour>
      <point x="414" y="-5" type="curve" smooth="yes"/>
      <point x="609" y="-5"/>
      <point x="767" y="153"/>
      <point x="767" y="349" type="curve" smooth="yes"/>
      <point x="767" y="544"/>
      <point x="609" y="702"/>
      <point x="414" y="702" type="curve" smooth="yes"/>
      <point x="218" y="702"/>
      <point x="60" y="544"/>
      <point x="60" y="349" type="curve" smooth="yes"/>
      <point x="60" y="153"/>
      <point x="218" y="-5"/>
    </contour>
    <contour>
      <point x="414" y="101" type="curve" smooth="yes"/>
      <point x="496" y="101"/>
      <point x="563" y="144"/>
      <point x="591" y="225" type="curve"/>
      <point x="574" y="232" type="line"/>
      <point x="550" y="160"/>
      <point x="489" y="118"/>
      <point x="414" y="118" type="curve" smooth="yes"/>
      <point x="291" y="118"/>
      <point x="229" y="225"/>
      <point x="229" y="347" type="curve" smooth="yes"/>
      <point x="229" y="469"/>
      <point x="290" y="579"/>
      <point x="413" y="579" type="curve" smooth="yes"/>
      <point x="487" y="579"/>
      <point x="548" y="536"/>
      <point x="579" y="465" type="curve"/>
      <point x="596" y="472" type="line"/>
      <point x="562" y="551"/>
      <point x="494" y="596"/>
      <point x="413" y="596" type="curve" smooth="yes"/>
      <point x="279" y="596"/>
      <point x="210" y="475"/>
      <point x="210" y="347" type="curve" smooth="yes"/>
      <point x="210" y="204"/>
      <point x="291" y="101"/>
    </contour>
    <contour>
      <point x="414" y="9" type="curve" smooth="yes"/>
      <point x="226" y="9"/>
      <point x="74" y="161"/>
      <point x="74" y="349" type="curve" smooth="yes"/>
      <point x="74" y="536"/>
      <point x="226" y="688"/>
      <point x="414" y="688" type="curve" smooth="yes"/>
      <point x="601" y="688"/>
      <point x="753" y="536"/>
      <point x="753" y="349" type="curve" smooth="yes"/>
      <point x="753" y="161"/>
      <point x="601" y="9"/>
    </contour>
  </outline>
</glyph>
<glyph name="guillemetleft" format="2">
  <advance width="368"/>
  <unicode hex="00AB"/>
  <outline>
    <contour>
      <point x="353" y="87" type="line"/>
      <point x="353" y="110" type="line"/>
      <point x="194" y="253" type="line"/>
      <point x="353" y="394" type="line"/>
      <point x="353" y="417" type="line"/>
      <point x="168" y="253" type="line"/>
    </contour>
    <contour>
      <point x="189" y="87" type="line"/>
      <point x="189" y="110" type="line"/>
      <point x="28" y="253" type="line"/>
      <point x="189" y="394" type="line"/>
      <point x="189" y="417" type="line"/>
      <point x="3" y="253" type="line"/>
    </contour>
  </outline>
</glyph>
<glyph name="acute" format="2">
  <advance width="259"/>
  <unicode hex="00B4"/>
  <outline>
    <contour>
      <point x="66" y="558" type="line"/>
      <point x="85" y="558" type="line"/>
      <point x="193" y="697" type="line"/>
      <point x="171" y="697" type="line"/>
    </contour>
  </outline>
</glyph>
<glyph name="periodcentered" format="2">
  <advance width="261"/>
  <unicode hex="00B7"/>
  <outline>
    <contour>
      <point x="109" y="303" type="line"/>
      <point x="136" y="303" type="line"/>
      <point x="136" y="394" type="line"/>
      <point x="109" y="394" type="line"/>
    </contour>
  </outline>
</glyph>
<glyph name="cedilla" format="2">
  <advance width="318"/>
  <unicode hex="00B8"/>
  <outline>
    <contour>
      <point x="159" y="-253" type="curve" smooth="yes"/>
      <point x="217" y="-253"/>
      <point x="252" y="-220"/>
      <point x="252" y="-167" type="curve" smooth="yes"/>
      <point x="252" y="-121"/>
      <point x="221" y="-91"/>
      <point x="152" y="-82" type="curve" smooth="yes"/>
      <point x="132" y="-79"/>
      <point x="128" y="-79"/>
      <point x="116" y="-79" type="curve"/>
      <point x="158" y="0" type="line"/>
      <point x="142" y="0" type="line"/>
      <point x="93" y="-92" type="line"/>
      <point x="103" y="-92"/>
      <point x="127" y="-93"/>
      <point x="142" y="-94" type="curve"/>
      <point x="201" y="-101"/>
      <point x="237" y="-124"/>
      <point x="237" y="-167" type="curve" smooth="yes"/>
      <point x="237" y="-212"/>
      <point x="209" y="-236"/>
      <point x="160" y="-236" type="curve" smooth="yes"/>
      <point x="122" y="-236"/>
      <point x="92" y="-213"/>
      <point x="81" y="-182" type="curve"/>
      <point x="66" y="-189" type="line"/>
      <point x="80" y="-226"/>
      <point x="119" y="-253"/>
    </contour>
  </outline>
</glyph>
<glyph name="onesuperior" format="2">
  <advance width="227"/>
  <unicode hex="00B9"/>
  <outline>
    <contour>
      <point x="132" y="488" type="line"/>
      <point x="147" y="488" type="line"/>
      <point x="147" y="902" type="line"/>
      <point x="132" y="902" type="line"/>
      <point x="132" y="859" type="line" smooth="yes"/>
      <point x="132" y="841"/>
      <point x="122" y="833"/>
      <point x="103" y="833" type="curve" smooth="yes"/>
      <point x="23" y="833" type="line"/>
      <point x="23" y="820" type="line"/>
      <point x="139" y="820" type="line"/>
      <point x="132" y="830" type="line"/>
    </contour>
  </outline>
</glyph>
<glyph name="ordmasculine" format="2">
  <advance width="510"/>
  <unicode hex="00BA"/>
  <outline>
    <contour>
      <point x="255" y="356" type="curve" smooth="yes"/>
      <point x="347" y="356"/>
      <point x="417" y="430"/>
      <point x="417" y="529" type="curve" smooth="yes"/>
      <point x="417" y="627"/>
      <point x="346" y="702"/>
      <point x="255" y="702" type="curve" smooth="yes"/>
      <point x="163" y="702"/>
      <point x="92" y="627"/>
      <point x="92" y="529" type="curve" smooth="yes"/>
      <point x="92" y="431"/>
      <point x="162" y="356"/>
    </contour>
    <contour>
      <point x="255" y="371" type="curve" smooth="yes"/>
      <point x="170" y="371"/>
      <point x="108" y="438"/>
      <point x="108" y="529" type="curve" smooth="yes"/>
      <point x="108" y="619"/>
      <point x="170" y="687"/>
      <point x="255" y="687" type="curve" smooth="yes"/>
      <point x="338" y="687"/>
      <point x="401" y="619"/>
      <point x="401" y="529" type="curve" smooth="yes"/>
      <point x="401" y="438"/>
      <point x="338" y="371"/>
    </contour>
  </outline>
</glyph>
<glyph name="AE" format="2">
  <advance width="844"/>
  <unicode hex="00C6"/>
  <anchor x="421" y="0" name="bottom"/>
  <anchor x="421" y="697" name="top"/>
  <outline>
    <contour>
      <point x="36" y="0" type="line"/>
      <point x="59" y="0" type="line"/>
      <point x="294" y="678" type="line"/>
      <point x="377" y="678" type="line"/>
      <point x="377" y="0" type="line"/>
      <point x="800" y="0" type="line"/>
      <point x="800" y="19" type="line"/>
      <point x="399" y="19" type="line"/>
      <point x="399" y="341" type="line"/>
      <point x="746" y="341" type="line"/>
      <point x="746" y="361" type="line"/>
      <point x="399" y="361" type="line"/>
      <point x="399" y="678" type="line"/>
      <point x="800" y="678" type="line"/>
      <point x="800" y="697" type="line"/>
      <point x="279" y="697" type="line"/>
    </contour>
    <contour>
      <point x="125" y="208" type="line"/>
      <point x="385" y="208" type="line"/>
      <point x="385" y="228" type="line"/>
      <point x="132" y="228" type="line"/>
    </contour>
  </outline>
</glyph>
<glyph name="Thorn" format="2">
  <advance width="625"/>
  <unicode hex="00DE"/>
  <anchor x="313" y="0" name="bottom"/>
  <anchor x="313" y="697" name="top"/>
  <outline>
    <contour>
      <point x="146" y="0" type="line"/>
      <point x="165" y="0" type="line"/>
      <point x="165" y="214" type="line"/>
      <point x="315" y="214" type="line" smooth="yes"/>
      <point x="456" y="214"/>
      <point x="539" y="284"/>
      <point x="539" y="403" type="curve" smooth="yes"/>
      <point x="539" y="523"/>
      <point x="455" y="593"/>
      <point x="318" y="593" type="curve" smooth="yes"/>
      <point x="165" y="593" type="line"/>
      <point x="165" y="697" type="line"/>
      <point x="146" y="697" type="line"/>
    </contour>
    <contour>
      <point x="165" y="233" type="line"/>
      <point x="165" y="575" type="line"/>
      <point x="315" y="575" type="line" smooth="yes"/>
      <point x="444" y="575"/>
      <point x="520" y="512"/>
      <point x="520" y="403" type="curve" smooth="yes"/>
      <point x="520" y="295"/>
      <point x="445" y="233"/>
      <point x="315" y="233" type="curve" smooth="yes"/>
    </contour>
  </outline>
</glyph>
<glyph name="thorn" format="2">
  <advance width="637"/>
  <unicode hex="00FE"/>
  <guideline x="541" y="-204" angle="0" name=""/>
  <anchor x="319" y="0" name="bottom"/>
  <anchor x="319" y="493" name="top"/>
  <outline>
    <contour>
      <point x="121" y="-204" type="line"/>
      <point x="141" y="-204" type="line"/>
      <point x="141" y="169" type="line"/>
      <point x="138" y="165" type="line"/>
      <point x="164" y="62"/>
      <point x="248" y="-5"/>
      <point x="348" y="-5" type="curve" smooth="yes"/>
      <point x="475" y="-5"/>
      <point x="554" y="101"/>
      <point x="554" y="245" type="curve" smooth="yes"/>
      <point x="554" y="389"/>
      <point x="477" y="498"/>
      <point x="348" y="498" type="curve" smooth="yes"/>
      <point x="247" y="498"/>
      <point x="164" y="430"/>
      <point x="138" y="327" type="curve"/>
      <point x="141" y="324" type="line"/>
      <point x="141" y="697" type="line"/>
      <point x="121" y="697" type="line"/>
    </contour>
    <contour>
      <point x="345" y="13" type="curve" smooth="yes"/>
      <point x="227" y="13"/>
      <point x="140" y="113"/>
      <point x="140" y="245" type="curve" smooth="yes"/>
      <point x="140" y="379"/>
      <point x="226" y="480"/>
      <point x="345" y="480" type="curve" smooth="yes"/>
      <point x="465" y="480"/>
      <point x="534" y="379"/>
      <point x="534" y="245" type="curve" smooth="yes"/>
      <point x="534" y="113"/>
      <point x="465" y="13"/>
    </contour>
  </outline>
</glyph>
<glyph name="idotless" format="2">
  <advance width="200"/>
  <unicode hex="0131"/>
  <anchor x="100" y="0" name="bottom"/>
  <anchor x="110" y="0" name="ogonek"/>
  <anchor x="100" y="493" name="top"/>
  <outline>
    <contour>
      <point x="90" y="0" type="line"/>
      <point x="110" y="0" type="line"/>
      <point x="110" y="493" type="line"/>
      <point x="90" y="493" type="line"/>
    </contour>
  </outline>
</glyph>
<glyph name="kgreenlandic" format="2">
  <advance width="507"/>
  <unicode hex="0138"/>
  <anchor x="245" y="0" name="bottom"/>
  <anchor x="245" y="493" name="top"/>
  <outline>
    <contour>
      <point x="428" y="0" type="line"/>
      <point x="452" y="0" type="line"/>
      <point x="243" y="314" type="line"/>
      <point x="417" y="493" type="line"/>
      <point x="390" y="493" type="line"/>
      <point x="100" y="194" type="line"/>
      <point x="100" y="167" type="line"/>
      <point x="229" y="300" type="line"/>
    </contour>
    <contour>
      <point x="88" y="0" type="line"/>
      <point x="108" y="0" type="line"/>
      <point x="108" y="493" type="line"/>
      <point x="88" y="493" type="line"/>
    </contour>
  </outline>
</glyph>
<glyph name="Eng" format="2">
  <advance width="650"/>
  <unicode hex="014A"/>
  <outline>
    <contour>
      <point x="431" y="-160" type="curve" smooth="yes"/>
      <point x="515" y="-160"/>
      <point x="553" y="-107"/>
      <point x="553" y="-25" type="curve" smooth="yes"/>
      <point x="553" y="697" type="line"/>
      <point x="533" y="697" type="line"/>
      <point x="533" y="25" type="line"/>
      <point x="533" y="25" type="line"/>
      <point x="125" y="697" type="line"/>
      <point x="97" y="697" type="line"/>
      <point x="97" y="0" type="line"/>
      <point x="117" y="0" type="line"/>
      <point x="117" y="672" type="line"/>
      <point x="117" y="672" type="line"/>
      <point x="524" y="0" type="line" smooth="yes"/>
      <point x="529" y="-8"/>
      <point x="533" y="-16"/>
      <point x="533" y="-35" type="curve" smooth="yes"/>
      <point x="533" y="-91"/>
      <point x="506" y="-143"/>
      <point x="428" y="-143" type="curve" smooth="yes"/>
      <point x="411" y="-143"/>
      <point x="382" y="-137"/>
      <point x="362" y="-129" type="curve"/>
      <point x="358" y="-145" type="line"/>
      <point x="378" y="-153"/>
      <point x="411" y="-160"/>
    </contour>
  </outline>
</glyph>
<glyph name="eng" format="2">
  <advance width="576"/>
  <unicode hex="014B"/>
  <guideline x="541" y="-204" angle="0" name=""/>
  <outline>
    <contour>
      <point x="393" y="-209" type="curve" smooth="yes"/>
      <point x="440" y="-209"/>
      <point x="466" y="-180"/>
      <point x="466" y="-111" type="curve" smooth="yes"/>
      <point x="466" y="328" type="line" smooth="yes"/>
      <point x="466" y="438"/>
      <point x="404" y="498"/>
      <point x="302" y="498" type="curve" smooth="yes"/>
      <point x="220" y="498"/>
      <point x="159" y="456"/>
      <point x="137" y="381" type="curve"/>
      <point x="140" y="378" type="line"/>
      <point x="140" y="493" type="line"/>
      <point x="120" y="493" type="line"/>
      <point x="120" y="0" type="line"/>
      <point x="140" y="0" type="line"/>
      <point x="140" y="304" type="line" smooth="yes"/>
      <point x="140" y="406"/>
      <point x="198" y="480"/>
      <point x="299" y="480" type="curve" smooth="yes"/>
      <point x="398" y="480"/>
      <point x="446" y="418"/>
      <point x="446" y="311" type="curve" smooth="yes"/>
      <point x="446" y="-110" type="line" smooth="yes"/>
      <point x="446" y="-167"/>
      <point x="426" y="-192"/>
      <point x="388" y="-192" type="curve" smooth="yes"/>
      <point x="373" y="-192"/>
      <point x="355" y="-188"/>
      <point x="335" y="-180" type="curve"/>
      <point x="335" y="-199" type="line"/>
      <point x="355" y="-205"/>
      <point x="376" y="-209"/>
    </contour>
  </outline>
</glyph>
<glyph name="tbar" format="2">
  <advance width="367"/>
  <unicode hex="0167"/>
  <anchor x="215" y="17" name="bottom"/>
  <anchor x="191" y="230" name="center"/>
  <anchor x="195" y="493" name="top"/>
  <anchor x="330" y="571" name="topright"/>
  <outline>
    <contour>
      <point x="242" y="-5" type="curve" smooth="yes"/>
      <point x="263" y="-5"/>
      <point x="282" y="-1"/>
      <point x="305" y="5" type="curve"/>
      <point x="305" y="23" type="line"/>
      <point x="284" y="16"/>
      <point x="263" y="13"/>
      <point x="245" y="13" type="curve" smooth="yes"/>
      <point x="200" y="13"/>
      <point x="180" y="44"/>
      <point x="180" y="98" type="curve" smooth="yes"/>
      <point x="180" y="668" type="line"/>
      <point x="160" y="653" type="line"/>
      <point x="160" y="95" type="line" smooth="yes"/>
      <point x="160" y="32"/>
      <point x="185" y="-5"/>
    </contour>
    <contour>
      <point x="38" y="239" type="line"/>
      <point x="305" y="239" type="line"/>
      <point x="305" y="255" type="line"/>
      <point x="38" y="255" type="line"/>
    </contour>
    <contour>
      <point x="38" y="476" type="line"/>
      <point x="305" y="476" type="line"/>
      <point x="305" y="493" type="line"/>
      <point x="38" y="493" type="line"/>
    </contour>
  </outline>
</glyph>
<glyph name="nhookleft" format="2">
  <advance width="545"/>
  <unicode hex="0272"/>
  <outline>
    <contour>
      <point x="116" y="0" type="line"/>
      <point x="136" y="0" type="line"/>
      <point x="136" y="304" type="line" smooth="yes"/>
      <point x="136" y="405"/>
      <point x="194" y="480"/>
      <point x="295" y="480" type="curve" smooth="yes"/>
      <point x="394" y="480"/>
      <point x="442" y="419"/>
      <point x="442" y="311" type="curve" smooth="yes"/>
      <point x="442" y="0" type="line"/>
      <point x="462" y="0" type="line"/>
      <point x="462" y="328" type="line" smooth="yes"/>
      <point x="462" y="438"/>
      <point x="400" y="498"/>
      <point x="298" y="498" type="curve" smooth="yes"/>
      <point x="218" y="498"/>
      <point x="155" y="457"/>
      <point x="133" y="381" type="curve"/>
      <point x="136" y="378" type="line"/>
      <point x="136" y="493" type="line"/>
      <point x="116" y="493" type="line"/>
    </contour>
    <contour>
      <point x="63" y="-209" type="curve" smooth="yes"/>
      <point x="111" y="-209"/>
      <point x="136" y="-179"/>
      <point x="136" y="-111" type="curve" smooth="yes"/>
      <point x="136" y="0" type="line"/>
      <point x="116" y="0" type="line"/>
      <point x="116" y="-110" type="line" smooth="yes"/>
      <point x="116" y="-167"/>
      <point x="97" y="-192"/>
      <point x="58" y="-192" type="curve" smooth="yes"/>
      <point x="43" y="-192"/>
      <point x="26" y="-188"/>
      <point x="5" y="-180" type="curve"/>
      <point x="5" y="-199" type="line"/>
      <point x="25" y="-205"/>
      <point x="47" y="-209"/>
    </contour>
  </outline>
</glyph>
<glyph name="circumflex" format="2">
  <advance width="418"/>
  <unicode hex="02C6"/>
  <outline>
    <contour>
      <point x="66" y="556" type="line"/>
      <point x="90" y="556" type="line"/>
      <point x="209" y="677" type="line"/>
      <point x="329" y="556" type="line"/>
      <point x="352" y="556" type="line"/>
      <point x="209" y="699" type="line"/>
    </contour>
  </outline>
</glyph>
<glyph name="dotaccent" format="2">
  <advance width="154"/>
  <unicode hex="02D9"/>
  <outline>
    <contour>
      <point x="66" y="603" type="line"/>
      <point x="88" y="603" type="line"/>
      <point x="88" y="697" type="line"/>
      <point x="66" y="697" type="line"/>
    </contour>
  </outline>
</glyph>
<glyph name="ring" format="2">
  <advance width="294"/>
  <unicode hex="02DA"/>
  <outline>
    <contour>
      <point x="147" y="551" type="curve" smooth="yes"/>
      <point x="192" y="551"/>
      <point x="228" y="587"/>
      <point x="228" y="631" type="curve" smooth="yes"/>
      <point x="228" y="675"/>
      <point x="191" y="712"/>
      <point x="147" y="712" type="curve" smooth="yes"/>
      <point x="102" y="712"/>
      <point x="66" y="677"/>
      <point x="66" y="631" type="curve" smooth="yes"/>
      <point x="66" y="587"/>
      <point x="101" y="551"/>
    </contour>
    <contour>
      <point x="147" y="566" type="curve" smooth="yes"/>
      <point x="110" y="566"/>
      <point x="81" y="594"/>
      <point x="81" y="631" type="curve" smooth="yes"/>
      <point x="81" y="668"/>
      <point x="110" y="697"/>
      <point x="147" y="697" type="curve" smooth="yes"/>
      <point x="183" y="697"/>
      <point x="213" y="668"/>
      <point x="213" y="631" type="curve" smooth="yes"/>
      <point x="213" y="595"/>
      <point x="183" y="566"/>
    </contour>
  </outline>
</glyph>
<glyph name="middledoublegraveaccentmod" format="2">
  <advance width="446"/>
  <unicode hex="02F5"/>
  <outline>
    <contour>
      <point x="166" y="355" type="line"/>
      <point x="186" y="355" type="line"/>
      <point x="77" y="493" type="line"/>
      <point x="54" y="493" type="line"/>
    </contour>
    <contour>
      <point x="374" y="355" type="line"/>
      <point x="394" y="355" type="line"/>
      <point x="280" y="493" type="line"/>
      <point x="257" y="493" type="line"/>
    </contour>
  </outline>
</glyph>
<glyph name="middledoubleacuteaccentmod" format="2">
  <advance width="446"/>
  <unicode hex="02F6"/>
  <outline>
    <contour>
      <point x="52" y="355" type="line"/>
      <point x="72" y="355" type="line"/>
      <point x="189" y="493" type="line"/>
      <point x="166" y="493" type="line"/>
    </contour>
    <contour>
      <point x="260" y="355" type="line"/>
      <point x="280" y="355" type="line"/>
      <point x="392" y="493" type="line"/>
      <point x="370" y="493" type="line"/>
    </contour>
  </outline>
</glyph>
<glyph name="circumflexcomb" format="2">
  <advance width="418"/>
  <unicode hex="0302"/>
  <anchor x="209" y="493" name="_top"/>
  <anchor x="209" y="684" name="top"/>
  <outline>
    <contour>
      <point x="66" y="556" type="line"/>
      <point x="87" y="556" type="line"/>
      <point x="209" y="677" type="line"/>
      <point x="330" y="556" type="line"/>
      <point x="352" y="556" type="line"/>
      <point x="209" y="699" type="line"/>
    </contour>
  </outline>
</glyph>
<glyph name="dotaccentcomb" format="2">
  <advance width="159"/>
  <unicode hex="0307"/>
  <anchor x="80" y="493" name="_top"/>
  <anchor x="80" y="697" name="top"/>
  <outline>
    <contour>
      <point x="66" y="603" type="line"/>
      <point x="93" y="603" type="line"/>
      <point x="93" y="697" type="line"/>
      <point x="66" y="697" type="line"/>
    </contour>
  </outline>
</glyph>
<glyph name="dieresiscomb" format="2">
  <advance width="326"/>
  <unicode hex="0308"/>
  <anchor x="163" y="493" name="_top"/>
  <anchor x="163" y="697" name="top"/>
  <outline>
    <contour>
      <point x="236" y="653" type="curve" smooth="yes"/>
      <point x="250" y="653"/>
      <point x="261" y="665"/>
      <point x="261" y="678" type="curve" smooth="yes"/>
      <point x="261" y="691"/>
      <point x="250" y="702"/>
      <point x="236" y="702" type="curve" smooth="yes"/>
      <point x="223" y="702"/>
      <point x="212" y="691"/>
      <point x="212" y="678" type="curve" smooth="yes"/>
      <point x="212" y="665"/>
      <point x="223" y="653"/>
    </contour>
    <contour>
      <point x="87" y="653" type="curve" smooth="yes"/>
      <point x="100" y="653"/>
      <point x="111" y="665"/>
      <point x="111" y="678" type="curve" smooth="yes"/>
      <point x="111" y="691"/>
      <point x="100" y="702"/>
      <point x="87" y="702" type="curve" smooth="yes"/>
      <point x="73" y="702"/>
      <point x="62" y="691"/>
      <point x="62" y="678" type="curve" smooth="yes"/>
      <point x="62" y="665"/>
      <point x="73" y="653"/>
    </contour>
  </outline>
</glyph>
<glyph name="dblgravecomb" format="2">
  <advance width="408"/>
  <unicode hex="030F"/>
  <anchor x="259" y="493" name="_top"/>
  <anchor x="205" y="697" name="top"/>
  <outline>
    <contour>
      <point x="174" y="556" type="line"/>
      <point x="193" y="556" type="line"/>
      <point x="88" y="697" type="line"/>
      <point x="66" y="697" type="line"/>
    </contour>
    <contour>
      <point x="323" y="556" type="line"/>
      <point x="342" y="556" type="line"/>
      <point x="238" y="697" type="line"/>
      <point x="217" y="697" type="line"/>
    </contour>
  </outline>
</glyph>
<glyph name="horncomb" format="2">
  <advance width="219"/>
  <unicode hex="031B"/>
  <anchor x="127" y="493" name="_topright"/>
  <anchor x="127" y="493" name="topright"/>
  <outline>
    <contour>
      <point x="66" y="500" type="line"/>
      <point x="149" y="500"/>
      <point x="187" y="548"/>
      <point x="187" y="641" type="curve" smooth="yes"/>
      <point x="187" y="697" type="line"/>
      <point x="171" y="697" type="line"/>
      <point x="171" y="641" type="line" smooth="yes"/>
      <point x="171" y="557"/>
      <point x="138" y="516"/>
      <point x="66" y="516" type="curve"/>
    </contour>
  </outline>
</glyph>
<glyph name="commaaccentcomb" format="2">
  <advance width="264"/>
  <unicode hex="0326"/>
  <anchor x="187" y="0" name="_bottom"/>
  <anchor x="132" y="-204" name="bottom"/>
  <outline>
    <contour>
      <point x="66" y="-204" type="line"/>
      <point x="85" y="-204" type="line"/>
      <point x="198" y="-58" type="line"/>
      <point x="175" y="-58" type="line"/>
    </contour>
  </outline>
</glyph>
<glyph name="cedillacomb" format="2">
  <advance width="317"/>
  <unicode hex="0327"/>
  <anchor x="177" y="0" name="_bottom"/>
  <anchor x="159" y="-204" name="bottom"/>
  <outline>
    <contour>
      <point x="158" y="-204" type="curve" smooth="yes"/>
      <point x="217" y="-204"/>
      <point x="251" y="-177"/>
      <point x="251" y="-134" type="curve" smooth="yes"/>
      <point x="251" y="-88"/>
      <point x="207" y="-71"/>
      <point x="142" y="-64" type="curve"/>
      <point x="187" y="3" type="line"/>
      <point x="170" y="3" type="line"/>
      <point x="118" y="-76" type="line"/>
      <point x="156" y="-78"/>
      <point x="236" y="-82"/>
      <point x="236" y="-134" type="curve" smooth="yes"/>
      <point x="236" y="-171"/>
      <point x="208" y="-190"/>
      <point x="158" y="-190" type="curve" smooth="yes"/>
      <point x="122" y="-190"/>
      <point x="90" y="-172"/>
      <point x="79" y="-147" type="curve"/>
      <point x="66" y="-154" type="line"/>
      <point x="80" y="-185"/>
      <point x="119" y="-204"/>
    </contour>
  </outline>
</glyph>
<glyph name="strokelongcomb" format="2">
  <advance width="748"/>
  <unicode hex="0336"/>
  <anchor x="374" y="282" name="_center"/>
  <outline>
    <contour>
      <point x="66" y="274" type="line"/>
      <point x="682" y="274" type="line"/>
      <point x="682" y="290" type="line"/>
      <point x="66" y="290" type="line"/>
    </contour>
  </outline>
</glyph>
<glyph name="tonos" format="2">
  <advance width="198"/>
  <unicode hex="0384"/>
  <anchor x="75" y="493" name="_top"/>
  <outline>
    <contour>
      <point x="66" y="558" type="line"/>
      <point x="84" y="558" type="line"/>
      <point x="132" y="697" type="line"/>
      <point x="112" y="697" type="line"/>
    </contour>
  </outline>
</glyph>
<glyph name="pi" format="2">
  <advance width="540"/>
  <unicode hex="03C0"/>
  <outline>
    <contour>
      <point x="485" y="-5" type="curve" smooth="yes"/>
      <point x="496" y="-5"/>
      <point x="507" y="-4"/>
      <point x="521" y="0" type="curve"/>
      <point x="517" y="17" type="line"/>
      <point x="506" y="15"/>
      <point x="495" y="14"/>
      <point x="487" y="14" type="curve" smooth="yes"/>
      <point x="420" y="14"/>
      <point x="393" y="54"/>
      <point x="393" y="155" type="curve" smooth="yes"/>
      <point x="393" y="475" type="line"/>
      <point x="497" y="475" type="line"/>
      <point x="497" y="493" type="line"/>
      <point x="48" y="493" type="line"/>
      <point x="48" y="475" type="line"/>
      <point x="111" y="475" type="line"/>
      <point x="111" y="0" type="line"/>
      <point x="131" y="0" type="line"/>
      <point x="131" y="475" type="line"/>
      <point x="374" y="475" type="line"/>
      <point x="374" y="152" type="line" smooth="yes"/>
      <point x="374" y="40"/>
      <point x="406" y="-5"/>
    </contour>
  </outline>
</glyph>
<glyph name="emdash" format="2">
  <advance width="1028"/>
  <unicode hex="2014"/>
  <outline>
    <contour>
      <point x="9" y="308" type="line"/>
      <point x="1019" y="308" type="line"/>
      <point x="1019" y="325" type="line"/>
      <point x="9" y="325" type="line"/>
    </contour>
  </outline>
</glyph>
<glyph name="quoteright" format="2">
  <advance width="228"/>
  <unicode hex="2019"/>
  <outline>
    <contour>
      <point x="37" y="408" type="line"/>
      <point x="54" y="408" type="line"/>
      <point x="192" y="697" type="line"/>
      <point x="169" y="697" type="line"/>
    </contour>
  </outline>
</glyph>
<glyph name="quotesinglbase" format="2">
  <advance width="255"/>
  <unicode hex="201A"/>
  <outline>
    <contour>
      <point x="50" y="-161" type="line"/>
      <point x="67" y="-161" type="line"/>
      <point x="205" y="128" type="line"/>
      <point x="182" y="128" type="line"/>
    </contour>
  </outline>
</glyph>
<glyph name="quotedblleft" format="2">
  <advance width="372"/>
  <unicode hex="201C"/>
  <outline>
    <contour>
      <point x="181" y="408" type="line"/>
      <point x="203" y="408" type="line"/>
      <point x="336" y="697" type="line"/>
      <point x="318" y="697" type="line"/>
    </contour>
    <contour>
      <point x="35" y="408" type="line"/>
      <point x="58" y="408" type="line"/>
      <point x="190" y="697" type="line"/>
      <point x="173" y="697" type="line"/>
    </contour>
  </outline>
</glyph>
<glyph name="quotedblbase" format="2">
  <advance width="319"/>
  <unicode hex="201E"/>
  <outline>
    <contour>
      <point x="155" y="-161" type="line"/>
      <point x="173" y="-161" type="line"/>
      <point x="310" y="128" type="line"/>
      <point x="288" y="128" type="line"/>
    </contour>
    <contour>
      <point x="9" y="-161" type="line"/>
      <point x="26" y="-161" type="line"/>
      <point x="164" y="128" type="line"/>
      <point x="141" y="128" type="line"/>
    </contour>
  </outline>
</glyph>
<glyph name="daggerdbl" format="2">
  <advance width="372"/>
  <unicode hex="2021"/>
  <outline>
    <contour>
      <point x="177" y="-101" type="line"/>
      <point x="195" y="-101" type="line"/>
      <point x="195" y="108" type="line"/>
      <point x="330" y="108" type="line"/>
      <point x="330" y="125" type="line"/>
      <point x="195" y="125" type="line"/>
      <point x="195" y="470" type="line"/>
      <point x="330" y="470" type="line"/>
      <point x="330" y="487" type="line"/>
      <point x="195" y="487" type="line"/>
      <point x="195" y="697" type="line"/>
      <point x="177" y="697" type="line"/>
      <point x="177" y="487" type="line"/>
      <point x="42" y="487" type="line"/>
      <point x="42" y="470" type="line"/>
      <point x="177" y="470" type="line"/>
      <point x="177" y="125" type="line"/>
      <point x="42" y="125" type="line"/>
      <point x="42" y="108" type="line"/>
      <point x="177" y="108" type="line"/>
    </contour>
  </outline>
</glyph>
<glyph name="triangularbullet" format="2">
  <advance width="292"/>
  <unicode hex="2023"/>
  <outline>
    <contour>
      <point x="67" y="123" type="line"/>
      <point x="272" y="239" type="line"/>
      <point x="67" y="353" type="line"/>
    </contour>
  </outline>
</glyph>
<glyph name="twodotenleader" format="2">
  <advance width="443"/>
  <unicode hex="2025"/>
  <outline>
    <contour>
      <point x="310" y="0" type="line"/>
      <point x="337" y="0" type="line"/>
      <point x="337" y="91" type="line"/>
      <point x="310" y="91" type="line"/>
    </contour>
    <contour>
      <point x="106" y="0" type="line"/>
      <point x="133" y="0" type="line"/>
      <point x="133" y="91" type="line"/>
      <point x="106" y="91" type="line"/>
    </contour>
  </outline>
</glyph>
<glyph name="ellipsis" format="2">
  <advance width="650"/>
  <unicode hex="2026"/>
  <outline>
    <contour>
      <point x="518" y="0" type="line"/>
      <point x="544" y="0" type="line"/>
      <point x="544" y="91" type="line"/>
      <point x="518" y="91" type="line"/>
    </contour>
    <contour>
      <point x="106" y="0" type="line"/>
      <point x="132" y="0" type="line"/>
      <point x="132" y="91" type="line"/>
      <point x="106" y="91" type="line"/>
    </contour>
    <contour>
      <point x="312" y="0" type="line"/>
      <point x="338" y="0" type="line"/>
      <point x="338" y="91" type="line"/>
      <point x="312" y="91" type="line"/>
    </contour>
  </outline>
</glyph>
<glyph name="perthousand" format="2">
  <advance width="1010"/>
  <unicode hex="2030"/>
  <outline>
    <contour>
      <point x="162" y="0" type="line"/>
      <point x="179" y="0" type="line"/>
      <point x="549" y="697" type="line"/>
      <point x="531" y="697" type="line"/>
    </contour>
    <contour>
      <point x="543" y="-5" type="curve" smooth="yes"/>
      <point x="613" y="-5"/>
      <point x="661" y="58"/>
      <point x="661" y="147" type="curve" smooth="yes"/>
      <point x="661" y="237"/>
      <point x="612" y="302"/>
      <point x="540" y="302" type="curve" smooth="yes"/>
      <point x="453" y="302"/>
      <point x="422" y="214"/>
      <point x="422" y="147" type="curve" smooth="yes"/>
      <point x="422" y="83"/>
      <point x="453" y="-5"/>
    </contour>
    <contour>
      <point x="543" y="11" type="curve" smooth="yes"/>
      <point x="464" y="11"/>
      <point x="438" y="89"/>
      <point x="438" y="147" type="curve" smooth="yes"/>
      <point x="438" y="208"/>
      <point x="464" y="286"/>
      <point x="540" y="286" type="curve" smooth="yes"/>
      <point x="612" y="286"/>
      <point x="645" y="216"/>
      <point x="645" y="147" type="curve" smooth="yes"/>
      <point x="645" y="69"/>
      <point x="604" y="11"/>
    </contour>
    <contour>
      <point x="172" y="395" type="curve" smooth="yes"/>
      <point x="242" y="395"/>
      <point x="291" y="459"/>
      <point x="291" y="548" type="curve" smooth="yes"/>
      <point x="291" y="638"/>
      <point x="241" y="702"/>
      <point x="169" y="702" type="curve" smooth="yes"/>
      <point x="82" y="702"/>
      <point x="51" y="614"/>
      <point x="51" y="548" type="curve" smooth="yes"/>
      <point x="51" y="483"/>
      <point x="82" y="395"/>
    </contour>
    <contour>
      <point x="172" y="411" type="curve" smooth="yes"/>
      <point x="93" y="411"/>
      <point x="67" y="490"/>
      <point x="67" y="548" type="curve" smooth="yes"/>
      <point x="67" y="608"/>
      <point x="93" y="686"/>
      <point x="169" y="686" type="curve" smooth="yes"/>
      <point x="241" y="686"/>
      <point x="274" y="617"/>
      <point x="274" y="548" type="curve" smooth="yes"/>
      <point x="274" y="468"/>
      <point x="232" y="411"/>
    </contour>
    <contour>
      <point x="840" y="-5" type="curve" smooth="yes"/>
      <point x="910" y="-5"/>
      <point x="959" y="58"/>
      <point x="959" y="147" type="curve" smooth="yes"/>
      <point x="959" y="236"/>
      <point x="910" y="302"/>
      <point x="837" y="302" type="curve" smooth="yes"/>
      <point x="750" y="302"/>
      <point x="719" y="214"/>
      <point x="719" y="147" type="curve" smooth="yes"/>
      <point x="719" y="83"/>
      <point x="750" y="-5"/>
    </contour>
    <contour>
      <point x="840" y="11" type="curve" smooth="yes"/>
      <point x="762" y="11"/>
      <point x="736" y="88"/>
      <point x="736" y="147" type="curve" smooth="yes"/>
      <point x="736" y="207"/>
      <point x="761" y="286"/>
      <point x="837" y="286" type="curve" smooth="yes"/>
      <point x="909" y="286"/>
      <point x="942" y="217"/>
      <point x="942" y="147" type="curve" smooth="yes"/>
      <point x="942" y="68"/>
      <point x="900" y="11"/>
    </contour>
  </outline>
</glyph>
<glyph name="foursuperior" format="2">
  <advance width="385"/>
  <unicode hex="2074"/>
  <outline>
    <contour>
      <point x="260" y="484" type="line"/>
      <point x="275" y="484" type="line"/>
      <point x="275" y="585" type="line"/>
      <point x="345" y="585" type="line"/>
      <point x="345" y="600" type="line"/>
      <point x="275" y="600" type="line"/>
      <point x="275" y="902" type="line"/>
      <point x="256" y="902" type="line"/>
      <point x="40" y="602" type="line"/>
      <point x="40" y="585" type="line"/>
      <point x="260" y="585" type="line"/>
    </contour>
    <contour>
      <point x="52" y="595" type="line"/>
      <point x="261" y="885" type="line"/>
      <point x="260" y="885" type="line"/>
      <point x="260" y="600" type="line"/>
      <point x="50" y="600" type="line"/>
    </contour>
  </outline>
</glyph>
<glyph name="dong" format="2">
  <advance width="577"/>
  <unicode hex="20AB"/>
  <outline>
    <contour>
      <point x="259" y="162" type="curve" smooth="yes"/>
      <point x="337" y="162"/>
      <point x="399" y="213"/>
      <point x="418" y="293" type="curve"/>
      <point x="415" y="295" type="line"/>
      <point x="416" y="166" type="line"/>
      <point x="433" y="166" type="line"/>
      <point x="433" y="700" type="line"/>
      <point x="415" y="700" type="line"/>
      <point x="415" y="416" type="line"/>
      <point x="421" y="416" type="line"/>
      <point x="401" y="494"/>
      <point x="339" y="548"/>
      <point x="259" y="548" type="curve" smooth="yes"/>
      <point x="162" y="548"/>
      <point x="87" y="465"/>
      <point x="87" y="355" type="curve" smooth="yes"/>
      <point x="87" y="246"/>
      <point x="161" y="162"/>
    </contour>
    <contour>
      <point x="97" y="0" type="line"/>
      <point x="483" y="0" type="line"/>
      <point x="483" y="15" type="line"/>
      <point x="97" y="15" type="line"/>
    </contour>
    <contour>
      <point x="261" y="180" type="curve" smooth="yes"/>
      <point x="173" y="180"/>
      <point x="106" y="255"/>
      <point x="106" y="355" type="curve" smooth="yes"/>
      <point x="106" y="454"/>
      <point x="173" y="530"/>
      <point x="261" y="530" type="curve" smooth="yes"/>
      <point x="350" y="530"/>
      <point x="417" y="455"/>
      <point x="417" y="355" type="curve" smooth="yes"/>
      <point x="417" y="255"/>
      <point x="350" y="180"/>
    </contour>
    <contour>
      <point x="312" y="624" type="line"/>
      <point x="483" y="624" type="line"/>
      <point x="483" y="639" type="line"/>
      <point x="312" y="639" type="line"/>
    </contour>
  </outline>
</glyph>
<glyph name="euro" format="2">
  <advance width="577"/>
  <unicode hex="20AC"/>
  <outline>
    <contour>
      <point x="372" y="-5" type="curve" smooth="yes"/>
      <point x="459" y="-5"/>
      <point x="520" y="20"/>
      <point x="568" y="61" type="curve"/>
      <point x="555" y="77" type="line"/>
      <point x="511" y="36"/>
      <point x="451" y="14"/>
      <point x="372" y="14" type="curve" smooth="yes"/>
      <point x="186" y="14"/>
      <point x="98" y="157"/>
      <point x="98" y="359" type="curve" smooth="yes"/>
      <point x="98" y="542"/>
      <point x="193" y="683"/>
      <point x="381" y="683" type="curve" smooth="yes"/>
      <point x="449" y="683"/>
      <point x="505" y="667"/>
      <point x="547" y="634" type="curve"/>
      <point x="559" y="649" type="line"/>
      <point x="514" y="685"/>
      <point x="456" y="702"/>
      <point x="381" y="702" type="curve" smooth="yes"/>
      <point x="183" y="702"/>
      <point x="78" y="556"/>
      <point x="78" y="361" type="curve" smooth="yes"/>
      <point x="78" y="152"/>
      <point x="170" y="-5"/>
    </contour>
    <contour>
      <point x="13" y="270" type="line"/>
      <point x="470" y="270" type="line"/>
      <point x="471" y="286" type="line"/>
      <point x="13" y="286" type="line"/>
    </contour>
    <contour>
      <point x="13" y="429" type="line"/>
      <point x="470" y="429" type="line"/>
      <point x="471" y="445" type="line"/>
      <point x="13" y="445" type="line"/>
    </contour>
  </outline>
</glyph>
<glyph name="hryvnia" format="2">
  <advance width="578"/>
  <unicode hex="20B4"/>
  <outline>
    <contour>
      <point x="295" y="-6" type="curve" smooth="yes"/>
      <point x="412" y="-6"/>
      <point x="496" y="61"/>
      <point x="517" y="170" type="curve"/>
      <point x="497" y="177" type="line"/>
      <point x="479" y="75"/>
      <point x="403" y="13"/>
      <point x="295" y="13" type="curve" smooth="yes"/>
      <point x="186" y="13"/>
      <point x="106" y="84"/>
      <point x="106" y="182" type="curve" smooth="yes"/>
      <point x="106" y="229"/>
      <point x="124" y="262"/>
      <point x="152" y="288" type="curve"/>
      <point x="126" y="288" type="line"/>
      <point x="101" y="261"/>
      <point x="86" y="228"/>
      <point x="86" y="182" type="curve" smooth="yes"/>
      <point x="86" y="73"/>
      <point x="174" y="-6"/>
    </contour>
    <contour>
      <point x="42" y="283" type="line"/>
      <point x="526" y="283" type="line"/>
      <point x="526" y="297" type="line"/>
      <point x="42" y="297" type="line"/>
    </contour>
    <contour>
      <point x="42" y="402" type="line"/>
      <point x="526" y="402" type="line"/>
      <point x="526" y="417" type="line"/>
      <point x="42" y="417" type="line"/>
    </contour>
    <contour>
      <point x="367" y="410" type="curve"/>
      <point x="398" y="410" type="line"/>
      <point x="445" y="438"/>
      <point x="481" y="475"/>
      <point x="481" y="537" type="curve" smooth="yes"/>
      <point x="481" y="632"/>
      <point x="403" y="703"/>
      <point x="300" y="703" type="curve" smooth="yes"/>
      <point x="214" y="703"/>
      <point x="156" y="671"/>
      <point x="115" y="599" type="curve"/>
      <point x="131" y="588" type="line"/>
      <point x="171" y="655"/>
      <point x="221" y="684"/>
      <point x="301" y="684" type="curve" smooth="yes"/>
      <point x="392" y="684"/>
      <point x="460" y="621"/>
      <point x="460" y="537" type="curve" smooth="yes"/>
      <point x="460" y="474"/>
      <point x="421" y="439"/>
    </contour>
  </outline>
</glyph>
<glyph name="numero" format="2">
  <advance width="1071"/>
  <unicode hex="2116"/>
  <anchor x="317" y="0" name="bottom"/>
  <anchor x="317" y="697" name="top"/>
  <outline>
    <contour>
      <point x="97" y="0" type="line"/>
      <point x="117" y="0" type="line"/>
      <point x="117" y="673" type="line"/>
      <point x="116" y="673" type="line"/>
      <point x="524" y="0" type="line"/>
      <point x="553" y="0" type="line"/>
      <point x="553" y="697" type="line"/>
      <point x="533" y="697" type="line"/>
      <point x="533" y="24" type="line"/>
      <point x="533" y="24" type="line"/>
      <point x="125" y="697" type="line"/>
      <point x="97" y="697" type="line"/>
    </contour>
    <contour>
      <point x="670" y="0" type="line"/>
      <point x="1006" y="0" type="line"/>
      <point x="1006" y="17" type="line"/>
      <point x="670" y="17" type="line"/>
    </contour>
    <contour>
      <point x="847" y="149" type="curve" smooth="yes"/>
      <point x="958" y="149"/>
      <point x="1043" y="243"/>
      <point x="1043" y="367" type="curve" smooth="yes"/>
      <point x="1043" y="488"/>
      <point x="958" y="582"/>
      <point x="847" y="582" type="curve" smooth="yes"/>
      <point x="735" y="582"/>
      <point x="652" y="488"/>
      <point x="652" y="367" type="curve" smooth="yes"/>
      <point x="652" y="242"/>
      <point x="735" y="149"/>
    </contour>
    <contour>
      <point x="847" y="165" type="curve" smooth="yes"/>
      <point x="744" y="165"/>
      <point x="671" y="251"/>
      <point x="671" y="367" type="curve" smooth="yes"/>
      <point x="671" y="480"/>
      <point x="744" y="565"/>
      <point x="847" y="565" type="curve" smooth="yes"/>
      <point x="950" y="565"/>
      <point x="1024" y="479"/>
      <point x="1024" y="367" type="curve" smooth="yes"/>
      <point x="1024" y="252"/>
      <point x="950" y="165"/>
    </contour>
  </outline>
</glyph>
<glyph name="trademark" format="2">
  <advance width="637"/>
  <unicode hex="2122"/>
  <outline>
    <contour>
      <point x="318" y="379" type="line"/>
      <point x="333" y="379" type="line"/>
      <point x="333" y="682" type="line"/>
      <point x="445" y="421" type="line"/>
      <point x="455" y="421" type="line"/>
      <point x="567" y="677" type="line"/>
      <point x="567" y="379" type="line"/>
      <point x="582" y="379" type="line"/>
      <point x="582" y="697" type="line"/>
      <point x="560" y="697" type="line"/>
      <point x="451" y="444" type="line"/>
      <point x="342" y="697" type="line"/>
      <point x="318" y="697" type="line"/>
    </contour>
    <contour>
      <point x="129" y="379" type="line"/>
      <point x="145" y="379" type="line"/>
      <point x="145" y="683" type="line"/>
      <point x="242" y="683" type="line"/>
      <point x="242" y="697" type="line"/>
      <point x="31" y="697" type="line"/>
      <point x="31" y="683" type="line"/>
      <point x="129" y="683" type="line"/>
    </contour>
  </outline>
</glyph>
<glyph name="Ohm" format="2">
  <advance width="718"/>
  <unicode hex="2126"/>
  <outline>
    <contour>
      <point x="65" y="0" type="line"/>
      <point x="288" y="0" type="line"/>
      <point x="288" y="71" type="line"/>
      <point x="151" y="152"/>
      <point x="84" y="252"/>
      <point x="84" y="395" type="curve" smooth="yes"/>
      <point x="84" y="571"/>
      <point x="185" y="683"/>
      <point x="359" y="683" type="curve" smooth="yes"/>
      <point x="533" y="683"/>
      <point x="634" y="571"/>
      <point x="634" y="395" type="curve" smooth="yes"/>
      <point x="634" y="254"/>
      <point x="568" y="153"/>
      <point x="431" y="71" type="curve"/>
      <point x="431" y="0" type="line"/>
      <point x="653" y="0" type="line"/>
      <point x="653" y="20" type="line"/>
      <point x="452" y="20" type="line"/>
      <point x="449" y="65" type="line"/>
      <point x="589" y="151"/>
      <point x="656" y="252"/>
      <point x="656" y="396" type="curve" smooth="yes"/>
      <point x="656" y="581"/>
      <point x="544" y="703"/>
      <point x="359" y="703" type="curve" smooth="yes"/>
      <point x="174" y="703"/>
      <point x="62" y="582"/>
      <point x="62" y="396" type="curve" smooth="yes"/>
      <point x="62" y="252"/>
      <point x="129" y="151"/>
      <point x="269" y="65" type="curve"/>
      <point x="267" y="20" type="line"/>
      <point x="65" y="20" type="line"/>
    </contour>
  </outline>
</glyph>
<glyph name="emptyset" format="2">
  <advance width="748"/>
  <unicode hex="2205"/>
  <outline>
    <contour>
      <point x="138" y="41" type="line"/>
      <point x="158" y="41" type="line"/>
      <point x="199" y="97" type="line"/>
      <point x="248" y="62"/>
      <point x="308" y="41"/>
      <point x="374" y="41" type="curve" smooth="yes"/>
      <point x="543" y="41"/>
      <point x="680" y="178"/>
      <point x="680" y="347" type="curve" smooth="yes"/>
      <point x="680" y="446"/>
      <point x="633" y="534"/>
      <point x="561" y="589" type="curve"/>
      <point x="608" y="653" type="line"/>
      <point x="590" y="653" type="line"/>
      <point x="549" y="598" type="line"/>
      <point x="499" y="632"/>
      <point x="440" y="653"/>
      <point x="374" y="653" type="curve" smooth="yes"/>
      <point x="204" y="653"/>
      <point x="68" y="516"/>
      <point x="68" y="347" type="curve" smooth="yes"/>
      <point x="68" y="246"/>
      <point x="117" y="159"/>
      <point x="186" y="105" type="curve"/>
    </contour>
    <contour>
      <point x="196" y="119" type="line"/>
      <point x="127" y="171"/>
      <point x="84" y="254"/>
      <point x="84" y="347" type="curve" smooth="yes"/>
      <point x="84" y="507"/>
      <point x="213" y="637"/>
      <point x="374" y="637" type="curve" smooth="yes"/>
      <point x="433" y="637"/>
      <point x="491" y="619"/>
      <point x="540" y="585" type="curve"/>
    </contour>
    <contour>
      <point x="374" y="57" type="curve" smooth="yes"/>
      <point x="314" y="57"/>
      <point x="255" y="76"/>
      <point x="208" y="109" type="curve"/>
      <point x="552" y="576" type="line"/>
      <point x="620" y="523"/>
      <point x="664" y="440"/>
      <point x="664" y="347" type="curve" smooth="yes"/>
      <point x="664" y="187"/>
      <point x="534" y="57"/>
    </contour>
  </outline>
</glyph>
<glyph name="increment" format="2">
  <advance width="624"/>
  <unicode hex="2206"/>
  <outline>
    <contour>
      <point x="39" y="0" type="line"/>
      <point x="585" y="0" type="line"/>
      <point x="317" y="697" type="line"/>
      <point x="309" y="697" type="line"/>
    </contour>
    <contour>
      <point x="65" y="18" type="line"/>
      <point x="313" y="661" type="line"/>
      <point x="560" y="18" type="line"/>
    </contour>
  </outline>
</glyph>
<glyph name="summation" format="2">
  <advance width="586"/>
  <unicode hex="2211"/>
  <outline>
    <contour>
      <point x="46" y="0" type="line"/>
      <point x="545" y="0" type="line"/>
      <point x="545" y="19" type="line"/>
      <point x="68" y="19" type="line"/>
      <point x="69" y="33" type="line"/>
      <point x="359" y="348" type="line"/>
      <point x="69" y="665" type="line"/>
      <point x="68" y="678" type="line"/>
      <point x="545" y="678" type="line"/>
      <point x="545" y="697" type="line"/>
      <point x="46" y="697" type="line"/>
      <point x="46" y="662" type="line"/>
      <point x="331" y="348" type="line"/>
      <point x="46" y="35" type="line"/>
    </contour>
  </outline>
</glyph>
<glyph name="minus" format="2">
  <advance width="560"/>
  <unicode hex="2212"/>
  <outline>
    <contour>
      <point x="127" y="238" type="line"/>
      <point x="433" y="238" type="line"/>
      <point x="433" y="256" type="line"/>
      <point x="127" y="256" type="line"/>
    </contour>
  </outline>
</glyph>
<glyph name="radical" format="2">
  <advance width="577"/>
  <unicode hex="221A"/>
  <outline>
    <contour>
      <point x="234" y="-23" type="line"/>
      <point x="539" y="697" type="line"/>
      <point x="519" y="697" type="line"/>
      <point x="234" y="24" type="line"/>
      <point x="119" y="301" type="line"/>
      <point x="36" y="301" type="line"/>
      <point x="36" y="282" type="line"/>
      <point x="107" y="282" type="line"/>
    </contour>
  </outline>
</glyph>
<glyph name="infinity" format="2">
  <advance width="898"/>
  <unicode hex="221E"/>
  <outline>
    <contour>
      <point x="212" y="168" type="curve" smooth="yes"/>
      <point x="300" y="168"/>
      <point x="379" y="233"/>
      <point x="444" y="333" type="curve"/>
      <point x="514" y="242"/>
      <point x="592" y="168"/>
      <point x="686" y="168" type="curve" smooth="yes"/>
      <point x="788" y="168"/>
      <point x="868" y="249"/>
      <point x="868" y="350" type="curve" smooth="yes"/>
      <point x="868" y="450"/>
      <point x="788" y="530"/>
      <point x="686" y="530" type="curve" smooth="yes"/>
      <point x="592" y="530"/>
      <point x="513" y="456"/>
      <point x="444" y="365" type="curve"/>
      <point x="384" y="458"/>
      <point x="305" y="530"/>
      <point x="212" y="530" type="curve" smooth="yes"/>
      <point x="111" y="530"/>
      <point x="30" y="450"/>
      <point x="30" y="350" type="curve" smooth="yes"/>
      <point x="30" y="249"/>
      <point x="111" y="168"/>
    </contour>
    <contour>
      <point x="214" y="186" type="curve" smooth="yes"/>
      <point x="123" y="186"/>
      <point x="49" y="259"/>
      <point x="49" y="350" type="curve" smooth="yes"/>
      <point x="49" y="440"/>
      <point x="123" y="512"/>
      <point x="214" y="512" type="curve" smooth="yes"/>
      <point x="290" y="512"/>
      <point x="366" y="458"/>
      <point x="434" y="350" type="curve"/>
      <point x="366" y="241"/>
      <point x="291" y="186"/>
    </contour>
    <contour>
      <point x="685" y="186" type="curve" smooth="yes"/>
      <point x="598" y="186"/>
      <point x="522" y="257"/>
      <point x="455" y="350" type="curve"/>
      <point x="522" y="442"/>
      <point x="598" y="512"/>
      <point x="685" y="512" type="curve" smooth="yes"/>
      <point x="776" y="512"/>
      <point x="850" y="439"/>
      <point x="850" y="350" type="curve" smooth="yes"/>
      <point x="850" y="259"/>
      <point x="775" y="186"/>
    </contour>
  </outline>
</glyph>
<glyph name="approxequal" format="2">
  <advance width="560"/>
  <unicode hex="2248"/>
  <outline>
    <contour>
      <point x="367" y="272" type="curve" smooth="yes"/>
      <point x="428" y="272"/>
      <point x="468" y="328"/>
      <point x="468" y="412" type="curve"/>
      <point x="450" y="412" type="line"/>
      <point x="450" y="337"/>
      <point x="417" y="289"/>
      <point x="367" y="289" type="curve" smooth="yes"/>
      <point x="287" y="289"/>
      <point x="288" y="420"/>
      <point x="191" y="420" type="curve" smooth="yes"/>
      <point x="131" y="420"/>
      <point x="92" y="371"/>
      <point x="92" y="291" type="curve"/>
      <point x="110" y="291" type="line"/>
      <point x="110" y="359"/>
      <point x="140" y="403"/>
      <point x="191" y="403" type="curve" smooth="yes"/>
      <point x="275" y="403"/>
      <point x="274" y="272"/>
    </contour>
    <contour>
      <point x="367" y="74" type="curve" smooth="yes"/>
      <point x="428" y="74"/>
      <point x="468" y="129"/>
      <point x="468" y="214" type="curve"/>
      <point x="450" y="214" type="line"/>
      <point x="450" y="139"/>
      <point x="417" y="91"/>
      <point x="367" y="91" type="curve" smooth="yes"/>
      <point x="287" y="91"/>
      <point x="288" y="222"/>
      <point x="191" y="222" type="curve" smooth="yes"/>
      <point x="131" y="222"/>
      <point x="92" y="172"/>
      <point x="92" y="93" type="curve"/>
      <point x="110" y="93" type="line"/>
      <point x="110" y="162"/>
      <point x="140" y="205"/>
      <point x="191" y="205" type="curve" smooth="yes"/>
      <point x="275" y="205"/>
      <point x="274" y="74"/>
    </contour>
  </outline>
</glyph>
<glyph name="notequal" format="2">
  <advance width="560"/>
  <unicode hex="2260"/>
  <outline>
    <contour>
      <point x="191" y="0" type="line"/>
      <point x="202" y="0" type="line"/>
      <point x="402" y="493" type="line"/>
      <point x="391" y="493" type="line"/>
    </contour>
    <component base="equal" xOffset="84"/>
  </outline>
</glyph>
<glyph name="lozenge" format="2">
  <advance width="491"/>
  <unicode hex="25CA"/>
  <outline>
    <contour>
      <point x="225" y="0" type="line"/>
      <point x="266" y="0" type="line"/>
      <point x="449" y="348" type="line"/>
      <point x="266" y="697" type="line"/>
      <point x="225" y="697" type="line"/>
      <point x="42" y="348" type="line"/>
    </contour>
    <contour>
      <point x="237" y="15" type="line"/>
      <point x="64" y="348" type="line"/>
      <point x="237" y="682" type="line"/>
      <point x="254" y="682" type="line"/>
      <point x="427" y="348" type="line"/>
      <point x="254" y="15" type="line"/>
    </contour>
  </outline>
</glyph>
<glyph name="brevecomb.case" format="2">
  <advance width="424"/>
  <anchor x="212" y="697" name="_top"/>
  <anchor x="212" y="862" name="top"/>
  <outline>
    <contour>
      <point x="212" y="743" type="curve" smooth="yes"/>
      <point x="306" y="743"/>
      <point x="358" y="788"/>
      <point x="358" y="871" type="curve"/>
      <point x="341" y="871" type="line"/>
      <point x="341" y="797"/>
      <point x="295" y="758"/>
      <point x="212" y="758" type="curve" smooth="yes"/>
      <point x="129" y="758"/>
      <point x="83" y="797"/>
      <point x="83" y="871" type="curve"/>
      <point x="66" y="871" type="line"/>
      <point x="66" y="788"/>
      <point x="117" y="743"/>
    </contour>
  </outline>
</glyph>
<glyph name="brevecomb_acutecomb.case" format="2">
  <advance width="424"/>
  <guideline x="392" y="847" angle="0" name=""/>
  <guideline x="359" y="871" angle="0" name=""/>
  <guideline x="342" y="981" angle="0" name=""/>
  <anchor x="212" y="697" name="_top"/>
  <anchor x="212" y="984" name="top"/>
  <outline>
    <contour>
      <point x="212" y="743" type="curve" smooth="yes"/>
      <point x="306" y="743"/>
      <point x="358" y="788"/>
      <point x="358" y="871" type="curve"/>
      <point x="342" y="871" type="line"/>
      <point x="342" y="797"/>
      <point x="296" y="758"/>
      <point x="212" y="758" type="curve" smooth="yes"/>
      <point x="128" y="758"/>
      <point x="82" y="797"/>
      <point x="82" y="871" type="curve"/>
      <point x="66" y="871" type="line"/>
      <point x="66" y="788"/>
      <point x="117" y="743"/>
    </contour>
    <contour>
      <point x="185" y="845" type="line"/>
      <point x="202" y="845" type="line"/>
      <point x="286" y="982" type="line"/>
      <point x="266" y="982" type="line"/>
    </contour>
  </outline>
</glyph>
<glyph name="brevecomb_gravecomb" format="2">
  <advance width="424"/>
  <guideline x="392" y="847" angle="0" name=""/>
  <guideline x="430" y="784" angle="0" name=""/>
  <anchor x="212" y="493" name="_top"/>
  <anchor x="212" y="809" name="top"/>
  <outline>
    <contour>
      <point x="212" y="567" type="curve" smooth="yes"/>
      <point x="305" y="567"/>
      <point x="358" y="612"/>
      <point x="358" y="697" type="curve"/>
      <point x="342" y="697" type="line"/>
      <point x="342" y="622"/>
      <point x="296" y="583"/>
      <point x="212" y="583" type="curve" smooth="yes"/>
      <point x="128" y="583"/>
      <point x="82" y="622"/>
      <point x="82" y="697" type="curve"/>
      <point x="66" y="697" type="line"/>
      <point x="66" y="612"/>
      <point x="118" y="567"/>
    </contour>
    <contour>
      <point x="222" y="671" type="line"/>
      <point x="239" y="671" type="line"/>
      <point x="157" y="809" type="line"/>
      <point x="138" y="809" type="line"/>
    </contour>
  </outline>
</glyph>
<glyph name="brevecomb_hookabovecomb.case" format="2">
  <advance width="424"/>
  <guideline x="430" y="784" angle="0" name=""/>
  <guideline x="342" y="981" angle="0" name=""/>
  <guideline x="258" y="1000" angle="0" name=""/>
  <anchor x="212" y="697" name="_top"/>
  <anchor x="212" y="1002" name="top"/>
  <outline>
    <contour>
      <point x="212" y="743" type="curve" smooth="yes"/>
      <point x="306" y="743"/>
      <point x="358" y="788"/>
      <point x="358" y="871" type="curve"/>
      <point x="342" y="871" type="line"/>
      <point x="342" y="797"/>
      <point x="296" y="758"/>
      <point x="212" y="758" type="curve" smooth="yes"/>
      <point x="128" y="758"/>
      <point x="82" y="797"/>
      <point x="82" y="871" type="curve"/>
      <point x="66" y="871" type="line"/>
      <point x="66" y="788"/>
      <point x="117" y="743"/>
    </contour>
    <contour>
      <point x="191" y="828" type="line"/>
      <point x="248" y="836"/>
      <point x="297" y="856"/>
      <point x="297" y="907" type="curve" smooth="yes"/>
      <point x="297" y="959"/>
      <point x="240" y="991"/>
      <point x="170" y="991" type="curve" smooth="yes"/>
      <point x="155" y="991" type="line"/>
      <point x="155" y="978" type="line"/>
      <point x="170" y="978" type="line" smooth="yes"/>
      <point x="227" y="978"/>
      <point x="281" y="953"/>
      <point x="281" y="907" type="curve" smooth="yes"/>
      <point x="281" y="864"/>
      <point x="236" y="846"/>
      <point x="187" y="840" type="curve"/>
    </contour>
  </outline>
</glyph>
<glyph name="brevecomb_hookabovecomb" format="2">
  <advance width="424"/>
  <guideline x="430" y="784" angle="0" name=""/>
  <anchor x="212" y="493" name="_top"/>
  <anchor x="212" y="848" name="top"/>
  <outline>
    <contour>
      <point x="212" y="567" type="curve" smooth="yes"/>
      <point x="305" y="567"/>
      <point x="358" y="612"/>
      <point x="358" y="697" type="curve"/>
      <point x="342" y="697" type="line"/>
      <point x="342" y="622"/>
      <point x="296" y="583"/>
      <point x="212" y="583" type="curve" smooth="yes"/>
      <point x="128" y="583"/>
      <point x="82" y="622"/>
      <point x="82" y="697" type="curve"/>
      <point x="66" y="697" type="line"/>
      <point x="66" y="612"/>
      <point x="118" y="567"/>
    </contour>
    <contour>
      <point x="191" y="664" type="line"/>
      <point x="246" y="672"/>
      <point x="297" y="690"/>
      <point x="297" y="745" type="curve" smooth="yes"/>
      <point x="297" y="797"/>
      <point x="240" y="830"/>
      <point x="170" y="830" type="curve" smooth="yes"/>
      <point x="155" y="830" type="line"/>
      <point x="155" y="815" type="line"/>
      <point x="170" y="815" type="line" smooth="yes"/>
      <point x="226" y="815"/>
      <point x="281" y="791"/>
      <point x="281" y="744" type="curve" smooth="yes"/>
      <point x="281" y="701"/>
      <point x="237" y="683"/>
      <point x="187" y="677" type="curve"/>
    </contour>
  </outline>
</glyph>
<glyph name="circumflexcomb.case" format="2">
  <advance width="418"/>
  <guideline x="237" y="761" angle="0" name=""/>
  <anchor x="209" y="697" name="_top"/>
  <anchor x="209" y="888" name="top"/>
  <outline>
    <contour>
      <point x="66" y="760" type="line"/>
      <point x="90" y="760" type="line"/>
      <point x="209" y="881" type="line"/>
      <point x="328" y="760" type="line"/>
      <point x="352" y="760" type="line"/>
      <point x="209" y="903" type="line"/>
    </contour>
  </outline>
</glyph>
<glyph name="circumflexcomb_acutecomb.case" format="2">
  <advance width="464"/>
  <guideline x="258" y="1000" angle="0" name=""/>
  <guideline x="214" y="748" angle="0" name=""/>
  <anchor x="209" y="697" name="_top"/>
  <anchor x="229" y="976" name="top"/>
  <outline>
    <contour>
      <point x="66" y="747" type="line"/>
      <point x="88" y="747" type="line"/>
      <point x="209" y="867" type="line"/>
      <point x="329" y="747" type="line"/>
      <point x="352" y="747" type="line"/>
      <point x="209" y="888" type="line"/>
    </contour>
    <contour>
      <point x="296" y="837" type="line"/>
      <point x="313" y="837" type="line"/>
      <point x="398" y="976" type="line"/>
      <point x="378" y="976" type="line"/>
    </contour>
  </outline>
</glyph>
<glyph name="circumflexcomb_gravecomb.case" format="2">
  <advance width="441"/>
  <guideline x="430" y="784" angle="0" name=""/>
  <guideline x="214" y="748" angle="0" name=""/>
  <anchor x="209" y="697" name="_top"/>
  <anchor x="219" y="976" name="top"/>
  <outline>
    <contour>
      <point x="66" y="747" type="line"/>
      <point x="90" y="747" type="line"/>
      <point x="209" y="867" type="line"/>
      <point x="328" y="747" type="line"/>
      <point x="352" y="747" type="line"/>
      <point x="209" y="888" type="line"/>
    </contour>
    <contour>
      <point x="357" y="837" type="line"/>
      <point x="375" y="837" type="line"/>
      <point x="293" y="976" type="line"/>
      <point x="273" y="976" type="line"/>
    </contour>
  </outline>
</glyph>
<glyph name="circumflexcomb_tildecomb.case" format="2">
  <advance width="418"/>
  <guideline x="342" y="784" angle="0" name=""/>
  <guideline x="213" y="748" angle="0" name=""/>
  <anchor x="208" y="697" name="_top"/>
  <anchor x="209" y="981" name="top"/>
  <outline>
    <contour>
      <point x="66" y="747" type="line"/>
      <point x="88" y="747" type="line"/>
      <point x="209" y="867" type="line"/>
      <point x="330" y="747" type="line"/>
      <point x="352" y="747" type="line"/>
      <point x="209" y="888" type="line"/>
    </contour>
    <contour>
      <point x="272" y="918" type="curve" smooth="yes"/>
      <point x="320" y="918"/>
      <point x="339" y="946"/>
      <point x="349" y="972" type="curve"/>
      <point x="333" y="976" type="line"/>
      <point x="323" y="949"/>
      <point x="306" y="933"/>
      <point x="272" y="933" type="curve" smooth="yes"/>
      <point x="216" y="933"/>
      <point x="206" y="980"/>
      <point x="144" y="980" type="curve" smooth="yes"/>
      <point x="103" y="980"/>
      <point x="80" y="959"/>
      <point x="68" y="926" type="curve"/>
      <point x="83" y="922" type="line"/>
      <point x="94" y="951"/>
      <point x="113" y="966"/>
      <point x="144" y="966" type="curve" smooth="yes"/>
      <point x="199" y="966"/>
      <point x="208" y="918"/>
    </contour>
  </outline>
</glyph>
<glyph name="circumflexcomb_tildecomb" format="2">
  <advance width="418"/>
  <guideline x="343" y="784" angle="0" name=""/>
  <anchor x="208" y="493" name="_top"/>
  <anchor x="209" y="789" name="top"/>
  <outline>
    <contour>
      <point x="66" y="556" type="line"/>
      <point x="88" y="556" type="line"/>
      <point x="209" y="675" type="line"/>
      <point x="330" y="556" type="line"/>
      <point x="352" y="556" type="line"/>
      <point x="209" y="697" type="line"/>
    </contour>
    <contour>
      <point x="273" y="727" type="curve" smooth="yes"/>
      <point x="320" y="727"/>
      <point x="339" y="755"/>
      <point x="349" y="781" type="curve"/>
      <point x="333" y="785" type="line"/>
      <point x="323" y="758"/>
      <point x="306" y="742"/>
      <point x="272" y="742" type="curve" smooth="yes"/>
      <point x="216" y="742"/>
      <point x="206" y="789"/>
      <point x="144" y="789" type="curve" smooth="yes"/>
      <point x="100" y="789"/>
      <point x="79" y="765"/>
      <point x="68" y="735" type="curve"/>
      <point x="83" y="731" type="line"/>
      <point x="94" y="760"/>
      <point x="112" y="775"/>
      <point x="144" y="775" type="curve" smooth="yes"/>
      <point x="201" y="775"/>
      <point x="208" y="727"/>
    </contour>
  </outline>
</glyph>
<glyph name="dieresistonos.ss03" format="2">
  <advance width="388"/>
  <anchor x="194" y="493" name="_top"/>
  <outline>
    <contour>
      <point x="197" y="624" type="line"/>
      <point x="263" y="804" type="line"/>
      <point x="245" y="808" type="line"/>
      <point x="183" y="629" type="line"/>
    </contour>
    <contour>
      <point x="91" y="620" type="curve" smooth="yes"/>
      <point x="104" y="620"/>
      <point x="115" y="631"/>
      <point x="115" y="644" type="curve" smooth="yes"/>
      <point x="115" y="658"/>
      <point x="104" y="669"/>
      <point x="91" y="669" type="curve" smooth="yes"/>
      <point x="77" y="669"/>
      <point x="66" y="658"/>
      <point x="66" y="644" type="curve" smooth="yes"/>
      <point x="66" y="631"/>
      <point x="77" y="620"/>
    </contour>
    <contour>
      <point x="298" y="620" type="curve" smooth="yes"/>
      <point x="311" y="620"/>
      <point x="322" y="631"/>
      <point x="322" y="644" type="curve" smooth="yes"/>
      <point x="322" y="658"/>
      <point x="311" y="669"/>
      <point x="298" y="669" type="curve" smooth="yes"/>
      <point x="284" y="669"/>
      <point x="273" y="657"/>
      <point x="273" y="644" type="curve" smooth="yes"/>
      <point x="273" y="631"/>
      <point x="284" y="620"/>
    </contour>
  </outline>
</glyph>
<glyph name="dotbelowcomb.ss03" format="2">
  <advance width="181"/>
  <anchor x="91" y="0" name="_bottom"/>
  <anchor x="91" y="-159" name="bottom"/>
  <outline>
    <contour>
      <point x="91" y="-159" type="curve" smooth="yes"/>
      <point x="104" y="-159"/>
      <point x="115" y="-147"/>
      <point x="115" y="-134" type="curve" smooth="yes"/>
      <point x="115" y="-121"/>
      <point x="104" y="-110"/>
      <point x="91" y="-110" type="curve" smooth="yes"/>
      <point x="77" y="-110"/>
      <point x="66" y="-121"/>
      <point x="66" y="-134" type="curve" smooth="yes"/>
      <point x="66" y="-147"/>
      <point x="77" y="-159"/>
    </contour>
  </outline>
</glyph>
<glyph name="eight.dnom" format="2">
  <advance width="337"/>
  <outline>
    <contour>
      <point x="167" y="-4" type="curve" smooth="yes"/>
      <point x="232" y="-4"/>
      <point x="298" y="36"/>
      <point x="298" y="116" type="curve" smooth="yes"/>
      <point x="298" y="174"/>
      <point x="261" y="215"/>
      <point x="208" y="227" type="curve"/>
      <point x="252" y="241"/>
      <point x="275" y="279"/>
      <point x="275" y="317" type="curve" smooth="yes"/>
      <point x="275" y="379"/>
      <point x="228" y="422"/>
      <point x="168" y="422" type="curve" smooth="yes"/>
      <point x="117" y="422"/>
      <point x="63" y="384"/>
      <point x="63" y="322" type="curve" smooth="yes"/>
      <point x="63" y="275"/>
      <point x="90" y="239"/>
      <point x="128" y="227" type="curve"/>
      <point x="75" y="215"/>
      <point x="37" y="173"/>
      <point x="37" y="116" type="curve" smooth="yes"/>
      <point x="37" y="36"/>
      <point x="104" y="-4"/>
    </contour>
    <contour>
      <point x="167" y="13" type="curve" smooth="yes"/>
      <point x="112" y="13"/>
      <point x="54" y="49"/>
      <point x="54" y="118" type="curve" smooth="yes"/>
      <point x="54" y="178"/>
      <point x="103" y="219"/>
      <point x="167" y="219" type="curve" smooth="yes"/>
      <point x="231" y="219"/>
      <point x="281" y="179"/>
      <point x="281" y="118" type="curve" smooth="yes"/>
      <point x="281" y="49"/>
      <point x="225" y="13"/>
    </contour>
    <contour>
      <point x="169" y="233" type="curve" smooth="yes"/>
      <point x="119" y="233"/>
      <point x="80" y="268"/>
      <point x="80" y="321" type="curve" smooth="yes"/>
      <point x="80" y="374"/>
      <point x="126" y="405"/>
      <point x="168" y="405" type="curve" smooth="yes"/>
      <point x="220" y="405"/>
      <point x="257" y="369"/>
      <point x="257" y="317" type="curve" smooth="yes"/>
      <point x="257" y="268"/>
      <point x="219" y="233"/>
    </contour>
  </outline>
</glyph>
<glyph name="eight.lf" format="2">
  <advance width="553"/>
  <outline>
    <contour>
      <point x="276" y="-5" type="curve" smooth="yes"/>
      <point x="382" y="-5"/>
      <point x="489" y="60"/>
      <point x="489" y="191" type="curve" smooth="yes"/>
      <point x="489" y="286"/>
      <point x="429" y="359"/>
      <point x="334" y="379" type="curve"/>
      <point x="403" y="398"/>
      <point x="449" y="457"/>
      <point x="449" y="533" type="curve" smooth="yes"/>
      <point x="449" y="633"/>
      <point x="377" y="702"/>
      <point x="278" y="702" type="curve" smooth="yes"/>
      <point x="195" y="702"/>
      <point x="106" y="644"/>
      <point x="106" y="540" type="curve" smooth="yes"/>
      <point x="106" y="459"/>
      <point x="151" y="399"/>
      <point x="219" y="379" type="curve"/>
      <point x="124" y="360"/>
      <point x="62" y="288"/>
      <point x="62" y="191" type="curve" smooth="yes"/>
      <point x="62" y="60"/>
      <point x="171" y="-5"/>
    </contour>
    <contour>
      <point x="276" y="14" type="curve" smooth="yes"/>
      <point x="178" y="14"/>
      <point x="82" y="73"/>
      <point x="82" y="193" type="curve" smooth="yes"/>
      <point x="82" y="297"/>
      <point x="162" y="369"/>
      <point x="276" y="369" type="curve" smooth="yes"/>
      <point x="389" y="369"/>
      <point x="469" y="297"/>
      <point x="469" y="193" type="curve" smooth="yes"/>
      <point x="469" y="73"/>
      <point x="376" y="14"/>
    </contour>
    <contour>
      <point x="279" y="386" type="curve" smooth="yes"/>
      <point x="188" y="386"/>
      <point x="126" y="447"/>
      <point x="126" y="539" type="curve" smooth="yes"/>
      <point x="126" y="632"/>
      <point x="202" y="683"/>
      <point x="278" y="683" type="curve" smooth="yes"/>
      <point x="368" y="683"/>
      <point x="429" y="621"/>
      <point x="429" y="532" type="curve" smooth="yes"/>
      <point x="429" y="447"/>
      <point x="366" y="386"/>
    </contour>
  </outline>
</glyph>
<glyph name="eight.numr" format="2">
  <advance width="337"/>
  <outline>
    <contour>
      <point x="167" y="275" type="curve" smooth="yes"/>
      <point x="232" y="275"/>
      <point x="298" y="315"/>
      <point x="298" y="394" type="curve" smooth="yes"/>
      <point x="298" y="452"/>
      <point x="261" y="494"/>
      <point x="208" y="506" type="curve"/>
      <point x="253" y="520"/>
      <point x="275" y="558"/>
      <point x="275" y="596" type="curve" smooth="yes"/>
      <point x="275" y="658"/>
      <point x="228" y="701"/>
      <point x="168" y="701" type="curve" smooth="yes"/>
      <point x="118" y="701"/>
      <point x="63" y="664"/>
      <point x="63" y="601" type="curve" smooth="yes"/>
      <point x="63" y="554"/>
      <point x="90" y="518"/>
      <point x="128" y="506" type="curve"/>
      <point x="74" y="494"/>
      <point x="37" y="453"/>
      <point x="37" y="394" type="curve" smooth="yes"/>
      <point x="37" y="316"/>
      <point x="103" y="275"/>
    </contour>
    <contour>
      <point x="167" y="292" type="curve" smooth="yes"/>
      <point x="112" y="292"/>
      <point x="54" y="328"/>
      <point x="54" y="397" type="curve" smooth="yes"/>
      <point x="54" y="457"/>
      <point x="103" y="498"/>
      <point x="167" y="498" type="curve" smooth="yes"/>
      <point x="231" y="498"/>
      <point x="281" y="458"/>
      <point x="281" y="397" type="curve" smooth="yes"/>
      <point x="281" y="327"/>
      <point x="225" y="292"/>
    </contour>
    <contour>
      <point x="169" y="513" type="curve" smooth="yes"/>
      <point x="119" y="513"/>
      <point x="80" y="547"/>
      <point x="80" y="600" type="curve" smooth="yes"/>
      <point x="80" y="653"/>
      <point x="126" y="684"/>
      <point x="168" y="684" type="curve" smooth="yes"/>
      <point x="220" y="684"/>
      <point x="257" y="648"/>
      <point x="257" y="596" type="curve" smooth="yes"/>
      <point x="257" y="547"/>
      <point x="219" y="513"/>
    </contour>
  </outline>
</glyph>
<glyph name="ellipsis.ss03" format="2">
  <advance width="626"/>
  <outline>
    <contour>
      <point x="502" y="-5" type="curve" smooth="yes"/>
      <point x="515" y="-5"/>
      <point x="526" y="6"/>
      <point x="526" y="19" type="curve" smooth="yes"/>
      <point x="526" y="33"/>
      <point x="515" y="44"/>
      <point x="502" y="44" type="curve" smooth="yes"/>
      <point x="488" y="44"/>
      <point x="477" y="32"/>
      <point x="477" y="19" type="curve" smooth="yes"/>
      <point x="477" y="6"/>
      <point x="488" y="-5"/>
    </contour>
    <contour>
      <point x="125" y="-5" type="curve" smooth="yes"/>
      <point x="138" y="-5"/>
      <point x="149" y="6"/>
      <point x="149" y="19" type="curve" smooth="yes"/>
      <point x="149" y="32"/>
      <point x="138" y="44"/>
      <point x="125" y="44" type="curve" smooth="yes"/>
      <point x="111" y="44"/>
      <point x="100" y="32"/>
      <point x="100" y="19" type="curve" smooth="yes"/>
      <point x="100" y="6"/>
      <point x="111" y="-5"/>
    </contour>
    <contour>
      <point x="313" y="-5" type="curve" smooth="yes"/>
      <point x="327" y="-5"/>
      <point x="338" y="6"/>
      <point x="338" y="19" type="curve" smooth="yes"/>
      <point x="338" y="33"/>
      <point x="326" y="44"/>
      <point x="313" y="44" type="curve" smooth="yes"/>
      <point x="300" y="44"/>
      <point x="289" y="33"/>
      <point x="289" y="19" type="curve" smooth="yes"/>
      <point x="289" y="6"/>
      <point x="300" y="-5"/>
    </contour>
  </outline>
</glyph>
<glyph name="exclamdown.ss03" format="2">
  <advance width="158"/>
  <outline>
    <contour>
      <point x="69" y="-204" type="line"/>
      <point x="89" y="-204" type="line"/>
      <point x="88" y="308" type="line"/>
      <point x="70" y="308" type="line"/>
    </contour>
    <contour>
      <point x="80" y="449" type="curve" smooth="yes"/>
      <point x="93" y="449"/>
      <point x="104" y="460"/>
      <point x="104" y="474" type="curve" smooth="yes"/>
      <point x="104" y="487"/>
      <point x="93" y="498"/>
      <point x="80" y="498" type="curve" smooth="yes"/>
      <point x="66" y="498"/>
      <point x="55" y="487"/>
      <point x="55" y="474" type="curve" smooth="yes"/>
      <point x="55" y="461"/>
      <point x="66" y="449"/>
    </contour>
  </outline>
</glyph>
<glyph name="f_f" format="2">
  <advance width="546"/>
  <anchor x="231" y="0" name="caret_1"/>
  <outline>
    <contour>
      <point x="99" y="0" type="line"/>
      <point x="119" y="0" type="line"/>
      <point x="119" y="476" type="line"/>
      <point x="342" y="476" type="line"/>
      <point x="342" y="0" type="line"/>
      <point x="362" y="0" type="line"/>
      <point x="362" y="476" type="line"/>
      <point x="547" y="476" type="line"/>
      <point x="547" y="493" type="line"/>
      <point x="362" y="493" type="line"/>
      <point x="362" y="577" type="line" smooth="yes"/>
      <point x="362" y="649"/>
      <point x="398" y="684"/>
      <point x="479" y="684" type="curve" smooth="yes"/>
      <point x="498" y="684"/>
      <point x="515" y="679"/>
      <point x="536" y="670" type="curve"/>
      <point x="544" y="685" type="line"/>
      <point x="521" y="696"/>
      <point x="502" y="702"/>
      <point x="478" y="702" type="curve" smooth="yes"/>
      <point x="435" y="702"/>
      <point x="400" y="693"/>
      <point x="377" y="672" type="curve"/>
      <point x="345" y="692"/>
      <point x="311" y="702"/>
      <point x="268" y="702" type="curve" smooth="yes"/>
      <point x="170" y="702"/>
      <point x="99" y="640"/>
      <point x="99" y="547" type="curve" smooth="yes"/>
      <point x="99" y="493" type="line"/>
      <point x="10" y="493" type="line"/>
      <point x="10" y="476" type="line"/>
      <point x="99" y="476" type="line"/>
    </contour>
    <contour>
      <point x="119" y="493" type="line"/>
      <point x="119" y="547" type="line" smooth="yes"/>
      <point x="119" y="630"/>
      <point x="179" y="685"/>
      <point x="269" y="685" type="curve" smooth="yes"/>
      <point x="302" y="685"/>
      <point x="335" y="678"/>
      <point x="367" y="659" type="curve"/>
      <point x="350" y="639"/>
      <point x="342" y="611"/>
      <point x="342" y="578" type="curve" smooth="yes"/>
      <point x="342" y="493" type="line"/>
    </contour>
  </outline>
</glyph>
<glyph name="five.dnom" format="2">
  <advance width="347"/>
  <outline>
    <contour>
      <point x="172" y="-4" type="curve" smooth="yes"/>
      <point x="250" y="-4"/>
      <point x="311" y="60"/>
      <point x="311" y="138" type="curve" smooth="yes"/>
      <point x="311" y="214"/>
      <point x="256" y="275"/>
      <point x="181" y="275" type="curve" smooth="yes"/>
      <point x="142" y="275"/>
      <point x="100" y="256"/>
      <point x="68" y="215" type="curve"/>
      <point x="71" y="216" type="line"/>
      <point x="103" y="409" type="line"/>
      <point x="93" y="401" type="line"/>
      <point x="291" y="401" type="line"/>
      <point x="291" y="418" type="line"/>
      <point x="87" y="418" type="line"/>
      <point x="51" y="207" type="line"/>
      <point x="72" y="198" type="line"/>
      <point x="98" y="236"/>
      <point x="139" y="258"/>
      <point x="180" y="258" type="curve" smooth="yes"/>
      <point x="245" y="258"/>
      <point x="293" y="206"/>
      <point x="293" y="138" type="curve" smooth="yes"/>
      <point x="293" y="71"/>
      <point x="241" y="14"/>
      <point x="172" y="14" type="curve" smooth="yes"/>
      <point x="113" y="14"/>
      <point x="67" y="53"/>
      <point x="55" y="115" type="curve"/>
      <point x="37" y="112" type="line"/>
      <point x="52" y="44"/>
      <point x="104" y="-4"/>
    </contour>
  </outline>
</glyph>
<glyph name="five.lf" format="2">
  <advance width="570"/>
  <outline>
    <contour>
      <point x="283" y="-5" type="curve" smooth="yes"/>
      <point x="413" y="-5"/>
      <point x="511" y="99"/>
      <point x="511" y="229" type="curve" smooth="yes"/>
      <point x="511" y="358"/>
      <point x="421" y="455"/>
      <point x="297" y="455" type="curve" smooth="yes"/>
      <point x="226" y="455"/>
      <point x="157" y="420"/>
      <point x="107" y="354" type="curve"/>
      <point x="106" y="357" type="line"/>
      <point x="161" y="686" type="line"/>
      <point x="150" y="678" type="line"/>
      <point x="477" y="678" type="line"/>
      <point x="477" y="697" type="line"/>
      <point x="143" y="697" type="line"/>
      <point x="83" y="345" type="line"/>
      <point x="112" y="334" type="line"/>
      <point x="160" y="402"/>
      <point x="227" y="434"/>
      <point x="296" y="434" type="curve" smooth="yes"/>
      <point x="409" y="434"/>
      <point x="491" y="348"/>
      <point x="491" y="229" type="curve" smooth="yes"/>
      <point x="491" y="109"/>
      <point x="402" y="14"/>
      <point x="283" y="14" type="curve" smooth="yes"/>
      <point x="181" y="14"/>
      <point x="102" y="83"/>
      <point x="80" y="188" type="curve"/>
      <point x="60" y="185" type="line"/>
      <point x="85" y="69"/>
      <point x="172" y="-5"/>
    </contour>
  </outline>
</glyph>
<glyph name="four.dnom" format="2">
  <advance width="355"/>
  <outline>
    <contour>
      <point x="243" y="0" type="line"/>
      <point x="261" y="0" type="line"/>
      <point x="261" y="101" type="line"/>
      <point x="330" y="101" type="line"/>
      <point x="330" y="117" type="line"/>
      <point x="261" y="117" type="line"/>
      <point x="261" y="418" type="line"/>
      <point x="240" y="418" type="line"/>
      <point x="24" y="117" type="line"/>
      <point x="24" y="101" type="line"/>
      <point x="243" y="101" type="line"/>
    </contour>
    <contour>
      <point x="39" y="111" type="line"/>
      <point x="244" y="399" type="line"/>
      <point x="243" y="398" type="line"/>
      <point x="243" y="117" type="line"/>
      <point x="37" y="117" type="line"/>
    </contour>
  </outline>
</glyph>
<glyph name="four.lf" format="2">
  <advance width="586"/>
  <outline>
    <contour>
      <point x="410" y="0" type="line"/>
      <point x="430" y="0" type="line"/>
      <point x="430" y="169" type="line"/>
      <point x="546" y="169" type="line"/>
      <point x="546" y="188" type="line"/>
      <point x="430" y="188" type="line"/>
      <point x="430" y="697" type="line"/>
      <point x="404" y="697" type="line"/>
      <point x="40" y="190" type="line"/>
      <point x="40" y="169" type="line"/>
      <point x="410" y="169" type="line"/>
    </contour>
    <contour>
      <point x="56" y="180" type="line"/>
      <point x="410" y="675" type="line"/>
      <point x="410" y="676" type="line"/>
      <point x="410" y="188" type="line"/>
      <point x="54" y="188" type="line"/>
    </contour>
  </outline>
</glyph>
<glyph name="four.numr" format="2">
  <advance width="355"/>
  <outline>
    <contour>
      <point x="243" y="279" type="line"/>
      <point x="261" y="279" type="line"/>
      <point x="261" y="379" type="line"/>
      <point x="330" y="379" type="line"/>
      <point x="330" y="396" type="line"/>
      <point x="261" y="396" type="line"/>
      <point x="261" y="697" type="line"/>
      <point x="240" y="697" type="line"/>
      <point x="24" y="396" type="line"/>
      <point x="24" y="379" type="line"/>
      <point x="243" y="379" type="line"/>
    </contour>
    <contour>
      <point x="39" y="390" type="line"/>
      <point x="244" y="678" type="line"/>
      <point x="243" y="677" type="line"/>
      <point x="243" y="396" type="line"/>
      <point x="37" y="396" type="line"/>
    </contour>
  </outline>
</glyph>
<glyph name="g.ss01" format="2">
  <advance width="606"/>
  <guideline x="528" y="-204" angle="0" name=""/>
  <anchor x="290" y="-209" name="bottom"/>
  <anchor x="312" y="493" name="top"/>
  <outline>
    <contour>
      <point x="290" y="-209" type="curve" smooth="yes"/>
      <point x="419" y="-209"/>
      <point x="517" y="-152"/>
      <point x="517" y="10" type="curve" smooth="yes"/>
      <point x="517" y="493" type="line"/>
      <point x="497" y="493" type="line"/>
      <point x="497" y="327" type="line"/>
      <point x="499" y="329" type="line"/>
      <point x="472" y="434"/>
      <point x="389" y="498"/>
      <point x="290" y="498" type="curve" smooth="yes"/>
      <point x="164" y="498"/>
      <point x="66" y="392"/>
      <point x="66" y="252" type="curve" smooth="yes"/>
      <point x="66" y="114"/>
      <point x="163" y="5"/>
      <point x="290" y="5" type="curve" smooth="yes"/>
      <point x="392" y="5"/>
      <point x="473" y="73"/>
      <point x="500" y="176" type="curve"/>
      <point x="497" y="178" type="line"/>
      <point x="497" y="10" type="line" smooth="yes"/>
      <point x="497" y="-142"/>
      <point x="406" y="-191"/>
      <point x="290" y="-191" type="curve" smooth="yes"/>
      <point x="205" y="-191"/>
      <point x="133" y="-143"/>
      <point x="99" y="-61" type="curve"/>
      <point x="84" y="-73" type="line"/>
      <point x="119" y="-157"/>
      <point x="196" y="-209"/>
    </contour>
    <contour>
      <point x="293" y="25" type="curve" smooth="yes"/>
      <point x="175" y="25"/>
      <point x="86" y="125"/>
      <point x="86" y="252" type="curve" smooth="yes"/>
      <point x="86" y="379"/>
      <point x="175" y="479"/>
      <point x="294" y="479" type="curve" smooth="yes"/>
      <point x="411" y="479"/>
      <point x="498" y="380"/>
      <point x="498" y="252" type="curve" smooth="yes"/>
      <point x="498" y="124"/>
      <point x="411" y="25"/>
    </contour>
  </outline>
</glyph>
<glyph name="g.ss02" format="2">
  <advance width="489"/>
  <guideline x="517" y="-204" angle="0" name=""/>
  <anchor x="255" y="-209" name="bottom"/>
  <anchor x="253" y="493" name="top"/>
  <outline>
    <contour>
      <point x="255" y="-209" type="curve" smooth="yes"/>
      <point x="387" y="-209"/>
      <point x="468" y="-156"/>
      <point x="468" y="-66" type="curve" smooth="yes"/>
      <point x="468" y="-1"/>
      <point x="437" y="58"/>
      <point x="329" y="58" type="curve" smooth="yes"/>
      <point x="214" y="58" type="line" smooth="yes"/>
      <point x="130" y="58"/>
      <point x="95" y="87"/>
      <point x="93" y="128" type="curve" smooth="yes"/>
      <point x="91" y="165"/>
      <point x="109" y="190"/>
      <point x="139" y="218" type="curve"/>
      <point x="129" y="232" type="line"/>
      <point x="89" y="197"/>
      <point x="72" y="167"/>
      <point x="74" y="126" type="curve" smooth="yes"/>
      <point x="77" y="72"/>
      <point x="122" y="41"/>
      <point x="204" y="41" type="curve" smooth="yes"/>
      <point x="327" y="41" type="line" smooth="yes"/>
      <point x="426" y="41"/>
      <point x="449" y="-14"/>
      <point x="449" y="-68" type="curve" smooth="yes"/>
      <point x="449" y="-147"/>
      <point x="375" y="-192"/>
      <point x="256" y="-192" type="curve" smooth="yes"/>
      <point x="134" y="-192"/>
      <point x="71" y="-142"/>
      <point x="71" y="-50" type="curve" smooth="yes"/>
      <point x="71" y="-34" type="line"/>
      <point x="154" y="50" type="line"/>
      <point x="141" y="59" type="line"/>
      <point x="54" y="-26" type="line"/>
      <point x="52" y="-36"/>
      <point x="52" y="-44"/>
      <point x="52" y="-50" type="curve" smooth="yes"/>
      <point x="52" y="-154"/>
      <point x="128" y="-209"/>
    </contour>
    <contour>
      <point x="247" y="180" type="curve" smooth="yes"/>
      <point x="346" y="180"/>
      <point x="415" y="243"/>
      <point x="415" y="336" type="curve" smooth="yes"/>
      <point x="415" y="432"/>
      <point x="345" y="498"/>
      <point x="248" y="498" type="curve" smooth="yes"/>
      <point x="149" y="498"/>
      <point x="77" y="431"/>
      <point x="77" y="337" type="curve" smooth="yes"/>
      <point x="77" y="245"/>
      <point x="147" y="180"/>
    </contour>
    <contour>
      <point x="247" y="198" type="curve" smooth="yes"/>
      <point x="158" y="198"/>
      <point x="97" y="256"/>
      <point x="97" y="337" type="curve" smooth="yes"/>
      <point x="97" y="421"/>
      <point x="160" y="480"/>
      <point x="248" y="480" type="curve" smooth="yes"/>
      <point x="335" y="480"/>
      <point x="396" y="422"/>
      <point x="396" y="336" type="curve" smooth="yes"/>
      <point x="396" y="255"/>
      <point x="336" y="198"/>
    </contour>
    <contour>
      <point x="386" y="421" type="line"/>
      <point x="470" y="498" type="line"/>
      <point x="459" y="512" type="line"/>
      <point x="372" y="432" type="line"/>
    </contour>
  </outline>
</glyph>
<glyph name="nine.dnom" format="2">
  <advance width="335"/>
  <outline>
    <contour>
      <point x="135" y="0" type="line"/>
      <point x="154" y="0" type="line"/>
      <point x="280" y="217" type="line" smooth="yes"/>
      <point x="291" y="236"/>
      <point x="301" y="260"/>
      <point x="301" y="288" type="curve" smooth="yes"/>
      <point x="301" y="362"/>
      <point x="239" y="422"/>
      <point x="168" y="422" type="curve" smooth="yes"/>
      <point x="94" y="422"/>
      <point x="33" y="360"/>
      <point x="33" y="288" type="curve" smooth="yes"/>
      <point x="33" y="217"/>
      <point x="94" y="155"/>
      <point x="167" y="155" type="curve" smooth="yes"/>
      <point x="197" y="155"/>
      <point x="227" y="169"/>
      <point x="248" y="186" type="curve"/>
      <point x="247" y="190" type="line"/>
    </contour>
    <contour>
      <point x="168" y="171" type="curve" smooth="yes"/>
      <point x="104" y="171"/>
      <point x="51" y="224"/>
      <point x="51" y="287" type="curve" smooth="yes"/>
      <point x="51" y="351"/>
      <point x="104" y="405"/>
      <point x="168" y="405" type="curve" smooth="yes"/>
      <point x="231" y="405"/>
      <point x="284" y="352"/>
      <point x="284" y="288" type="curve" smooth="yes"/>
      <point x="284" y="224"/>
      <point x="230" y="171"/>
    </contour>
  </outline>
</glyph>
<glyph name="one.numr" format="2">
  <advance width="247"/>
  <outline>
    <contour>
      <point x="130" y="279" type="line"/>
      <point x="147" y="279" type="line"/>
      <point x="147" y="697" type="line"/>
      <point x="130" y="697" type="line"/>
      <point x="17" y="628" type="line"/>
      <point x="17" y="613" type="line"/>
      <point x="130" y="678" type="line"/>
    </contour>
  </outline>
</glyph>
<glyph name="questiondown.ss03" format="2">
  <advance width="420"/>
  <outline>
    <contour>
      <point x="215" y="-209" type="curve" smooth="yes"/>
      <point x="330" y="-209"/>
      <point x="407" y="-141"/>
      <point x="408" y="-35" type="curve"/>
      <point x="389" y="-35" type="line"/>
      <point x="388" y="-131"/>
      <point x="321" y="-191"/>
      <point x="216" y="-191" type="curve" smooth="yes"/>
      <point x="102" y="-191"/>
      <point x="37" y="-136"/>
      <point x="37" y="-38" type="curve" smooth="yes"/>
      <point x="37" y="116"/>
      <point x="222" y="84"/>
      <point x="222" y="223" type="curve" smooth="yes"/>
      <point x="222" y="310" type="line"/>
      <point x="203" y="310" type="line"/>
      <point x="203" y="224" type="line" smooth="yes"/>
      <point x="203" y="98"/>
      <point x="18" y="132"/>
      <point x="18" y="-38" type="curve" smooth="yes"/>
      <point x="18" y="-148"/>
      <point x="93" y="-209"/>
    </contour>
    <contour>
      <point x="212" y="449" type="curve" smooth="yes"/>
      <point x="225" y="449"/>
      <point x="237" y="460"/>
      <point x="237" y="474" type="curve" smooth="yes"/>
      <point x="237" y="487"/>
      <point x="226" y="498"/>
      <point x="212" y="498" type="curve" smooth="yes"/>
      <point x="199" y="498"/>
      <point x="188" y="487"/>
      <point x="188" y="474" type="curve" smooth="yes"/>
      <point x="188" y="460"/>
      <point x="199" y="449"/>
    </contour>
  </outline>
</glyph>
<glyph name="seven.lf" format="2">
  <advance width="558"/>
  <outline>
    <contour>
      <point x="132" y="0" type="line"/>
      <point x="154" y="0" type="line"/>
      <point x="522" y="673" type="line"/>
      <point x="522" y="697" type="line"/>
      <point x="27" y="697" type="line"/>
      <point x="27" y="678" type="line"/>
      <point x="505" y="678" type="line"/>
      <point x="502" y="677" type="line"/>
    </contour>
  </outline>
</glyph>
<glyph name="seven.numr" format="2">
  <advance width="337"/>
  <outline>
    <contour>
      <point x="79" y="279" type="line"/>
      <point x="98" y="279" type="line"/>
      <point x="315" y="680" type="line"/>
      <point x="315" y="697" type="line"/>
      <point x="19" y="697" type="line"/>
      <point x="19" y="680" type="line"/>
      <point x="302" y="680" type="line"/>
      <point x="298" y="683" type="line"/>
    </contour>
  </outline>
</glyph>
<glyph name="slashlongcomb.case" format="2">
  <advance width="601"/>
  <anchor x="301" y="349" name="_center"/>
  <outline>
    <contour>
      <point x="66" y="0" type="line"/>
      <point x="84" y="0" type="line"/>
      <point x="535" y="697" type="line"/>
      <point x="518" y="697" type="line"/>
    </contour>
  </outline>
</glyph>
<glyph name="three.dnom" format="2">
  <advance width="350"/>
  <outline>
    <contour>
      <point x="173" y="-4" type="curve" smooth="yes"/>
      <point x="255" y="-4"/>
      <point x="313" y="46"/>
      <point x="313" y="117" type="curve" smooth="yes"/>
      <point x="313" y="188"/>
      <point x="250" y="218"/>
      <point x="194" y="222" type="curve"/>
      <point x="252" y="232"/>
      <point x="291" y="263"/>
      <point x="291" y="318" type="curve" smooth="yes"/>
      <point x="291" y="378"/>
      <point x="239" y="422"/>
      <point x="173" y="422" type="curve" smooth="yes"/>
      <point x="102" y="422"/>
      <point x="53" y="376"/>
      <point x="53" y="312" type="curve"/>
      <point x="70" y="312" type="line"/>
      <point x="71" y="374"/>
      <point x="119" y="404"/>
      <point x="172" y="404" type="curve" smooth="yes"/>
      <point x="231" y="404"/>
      <point x="274" y="367"/>
      <point x="274" y="316" type="curve" smooth="yes"/>
      <point x="274" y="247"/>
      <point x="203" y="228"/>
      <point x="147" y="229" type="curve"/>
      <point x="147" y="215" type="line"/>
      <point x="242" y="213"/>
      <point x="296" y="181"/>
      <point x="296" y="117" type="curve" smooth="yes"/>
      <point x="296" y="55"/>
      <point x="246" y="14"/>
      <point x="174" y="14" type="curve" smooth="yes"/>
      <point x="100" y="14"/>
      <point x="50" y="54"/>
      <point x="50" y="120" type="curve"/>
      <point x="33" y="120" type="line"/>
      <point x="33" y="46"/>
      <point x="88" y="-4"/>
    </contour>
  </outline>
</glyph>
<glyph name="three.numr" format="2">
  <advance width="350"/>
  <outline>
    <contour>
      <point x="173" y="275" type="curve" smooth="yes"/>
      <point x="255" y="275"/>
      <point x="313" y="325"/>
      <point x="313" y="396" type="curve" smooth="yes"/>
      <point x="313" y="468"/>
      <point x="249" y="497"/>
      <point x="194" y="502" type="curve"/>
      <point x="254" y="511"/>
      <point x="291" y="544"/>
      <point x="291" y="597" type="curve" smooth="yes"/>
      <point x="291" y="657"/>
      <point x="239" y="701"/>
      <point x="173" y="701" type="curve" smooth="yes"/>
      <point x="102" y="701"/>
      <point x="53" y="655"/>
      <point x="53" y="591" type="curve"/>
      <point x="70" y="591" type="line"/>
      <point x="71" y="653"/>
      <point x="118" y="683"/>
      <point x="172" y="683" type="curve" smooth="yes"/>
      <point x="230" y="683"/>
      <point x="274" y="647"/>
      <point x="274" y="596" type="curve" smooth="yes"/>
      <point x="274" y="525"/>
      <point x="203" y="507"/>
      <point x="147" y="508" type="curve"/>
      <point x="147" y="494" type="line"/>
      <point x="243" y="492"/>
      <point x="296" y="460"/>
      <point x="296" y="396" type="curve" smooth="yes"/>
      <point x="296" y="332"/>
      <point x="244" y="293"/>
      <point x="174" y="293" type="curve" smooth="yes"/>
      <point x="100" y="293"/>
      <point x="50" y="333"/>
      <point x="50" y="399" type="curve"/>
      <point x="33" y="399" type="line"/>
      <point x="33" y="326"/>
      <point x="88" y="275"/>
    </contour>
  </outline>
</glyph>
<glyph name="tildecomb.case" format="2">
  <advance width="434"/>
  <guideline x="359" y="871" angle="0" name=""/>
  <guideline x="237" y="761" angle="0" name=""/>
  <anchor x="218" y="697" name="_top"/>
  <anchor x="218" y="878" name="top"/>
  <outline>
    <contour>
      <point x="291" y="745" type="curve" smooth="yes"/>
      <point x="337" y="745"/>
      <point x="368" y="795"/>
      <point x="368" y="871" type="curve"/>
      <point x="352" y="871" type="line"/>
      <point x="352" y="806"/>
      <point x="327" y="760"/>
      <point x="292" y="760" type="curve" smooth="yes"/>
      <point x="216" y="760"/>
      <point x="228" y="876"/>
      <point x="147" y="876" type="curve" smooth="yes"/>
      <point x="97" y="876"/>
      <point x="66" y="832"/>
      <point x="66" y="760" type="curve"/>
      <point x="81" y="760" type="line"/>
      <point x="81" y="822"/>
      <point x="106" y="861"/>
      <point x="147" y="861" type="curve" smooth="yes"/>
      <point x="219" y="861"/>
      <point x="205" y="745"/>
    </contour>
  </outline>
</glyph>
<glyph name="two.lf" format="2">
  <advance width="545"/>
  <outline>
    <contour>
      <point x="54" y="0" type="line"/>
      <point x="493" y="0" type="line"/>
      <point x="493" y="19" type="line"/>
      <point x="75" y="19" type="line"/>
      <point x="72" y="22" type="line"/>
      <point x="225" y="145"/>
      <point x="464" y="299"/>
      <point x="464" y="507" type="curve" smooth="yes"/>
      <point x="464" y="627"/>
      <point x="388" y="702"/>
      <point x="267" y="702" type="curve" smooth="yes"/>
      <point x="135" y="702"/>
      <point x="61" y="618"/>
      <point x="61" y="479" type="curve"/>
      <point x="81" y="479" type="line"/>
      <point x="81" y="607"/>
      <point x="148" y="683"/>
      <point x="267" y="683" type="curve" smooth="yes"/>
      <point x="378" y="683"/>
      <point x="444" y="615"/>
      <point x="444" y="506" type="curve" smooth="yes"/>
      <point x="444" y="302"/>
      <point x="198" y="150"/>
      <point x="54" y="30" type="curve"/>
    </contour>
  </outline>
</glyph>
<glyph name="two.numr" format="2">
  <advance width="331"/>
  <outline>
    <contour>
      <point x="33" y="279" type="line"/>
      <point x="299" y="279" type="line"/>
      <point x="299" y="296" type="line"/>
      <point x="52" y="296" type="line"/>
      <point x="49" y="295" type="line"/>
      <point x="151" y="373"/>
      <point x="281" y="462"/>
      <point x="281" y="581" type="curve" smooth="yes"/>
      <point x="281" y="654"/>
      <point x="234" y="700"/>
      <point x="162" y="700" type="curve" smooth="yes"/>
      <point x="81" y="700"/>
      <point x="37" y="645"/>
      <point x="37" y="565" type="curve"/>
      <point x="54" y="564" type="line"/>
      <point x="54" y="634"/>
      <point x="89" y="683"/>
      <point x="162" y="683" type="curve" smooth="yes"/>
      <point x="225" y="683"/>
      <point x="264" y="644"/>
      <point x="264" y="581" type="curve" smooth="yes"/>
      <point x="264" y="459"/>
      <point x="115" y="369"/>
      <point x="33" y="299" type="curve"/>
    </contour>
  </outline>
</glyph>
<glyph name="zero.dnom" format="2">
  <advance width="331"/>
  <outline>
    <contour>
      <point x="167" y="-4" type="curve" smooth="yes"/>
      <point x="253" y="-4"/>
      <point x="289" y="92"/>
      <point x="289" y="209" type="curve" smooth="yes"/>
      <point x="289" y="327"/>
      <point x="252" y="423"/>
      <point x="163" y="423" type="curve" smooth="yes"/>
      <point x="68" y="423"/>
      <point x="42" y="312"/>
      <point x="42" y="210" type="curve" smooth="yes"/>
      <point x="42" y="107"/>
      <point x="69" y="-4"/>
    </contour>
    <contour>
      <point x="167" y="14" type="curve" smooth="yes"/>
      <point x="86" y="14"/>
      <point x="59" y="107"/>
      <point x="59" y="209" type="curve" smooth="yes"/>
      <point x="59" y="312"/>
      <point x="86" y="405"/>
      <point x="163" y="405" type="curve" smooth="yes"/>
      <point x="236" y="405"/>
      <point x="270" y="325"/>
      <point x="270" y="208" type="curve" smooth="yes"/>
      <point x="270" y="95"/>
      <point x="237" y="14"/>
    </contour>
  </outline>
</glyph>
